<?xml version="1.0" encoding="utf-8"?>
<!-- Generator: Adobe Illustrator 16.0.0, SVG Export Plug-In . SVG Version: 6.00 Build 0)  -->
<!DOCTYPE svg PUBLIC "-//W3C//DTD SVG 1.1//EN" "http://www.w3.org/Graphics/SVG/1.1/DTD/svg11.dtd">
<svg version="1.1" id="Capa_1" xmlns="http://www.w3.org/2000/svg" xmlns:xlink="http://www.w3.org/1999/xlink" x="0px" y="0px"
	 width="139px" height="23px" viewBox="0 0 139 23" enable-background="new 0 0 139 23" xml:space="preserve">
<g>
	<path fill="#FFFFFF" d="M91.932,8.258c-0.605,0.276-1.576,0.64-2.485,0.971v8.533c0,0.956-0.056,1.568-0.168,1.865
		c-0.102,0.286-0.324,0.521-0.647,0.714v0.36c1.14,0.25,2.086,0.483,2.695,0.714c0.624,0.224,1.552,0.67,2.513,1.178l4.957-3.494
		l-0.323-0.434l-2.131,1.463l-3.576-1.439v-2.714l6.577-4.641l-4.078-4.81C93.665,7.349,92.356,8.052,91.932,8.258
		C91.932,8.258,92.356,8.052,91.932,8.258z M92.764,8.341l3.799,4.273l-3.799,2.696V8.341z"/>
	<path fill="#FFFFFF" d="M115.681,6.524l3.87,2.252l-1.74,2.604l-3.232-1.899v9.305l3.036,1.389l1.557-1.141l0.374,0.476
		l-4.239,3.104c-0.924-0.52-1.853-0.984-2.509-1.233c-0.659-0.24-1.528-0.453-2.482-0.647V20.39c0.333-0.24,0.547-0.491,0.658-0.762
		c0.147-0.391,0.232-0.98,0.232-1.778V9.508C113.131,8.729,114.438,7.858,115.681,6.524C115.681,6.524,114.438,7.858,115.681,6.524z
		"/>
	<path fill="#FFFFFF" d="M134.01,6.524c-1.327,1.243-3.291,2.271-5.052,2.865v8.387c0,0.786-0.072,1.352-0.212,1.675
		c-0.094,0.264-0.314,0.537-0.688,0.854l0.138,0.289c0.885,0.045,1.671,0.185,2.367,0.436c0.916,0.334,1.861,0.731,3.27,1.586
		c0.455-0.419,1.299-0.984,1.79-1.263c0.647-0.377,1.922-0.981,3.372-1.574V8.535C136.952,8.026,135.378,7.451,134.01,6.524
		C134.01,6.524,135.378,7.451,134.01,6.524z M133.303,9.6c0.501,0.177,1.17,0.462,2.345,1.009v9.397l-3.362-1.455V9.259
		C132.777,9.342,132.959,9.48,133.303,9.6C133.303,9.6,132.959,9.48,133.303,9.6z"/>
	<path fill="#FFFFFF" d="M59.479,6.524c-1.336,1.243-3.289,2.271-5.059,2.865v8.387c0,0.786-0.065,1.352-0.205,1.675
		c-0.091,0.264-0.324,0.537-0.685,0.854l0.138,0.289c0.879,0.045,1.668,0.185,2.354,0.436c0.917,0.334,1.881,0.731,3.271,1.586
		c0.454-0.419,1.306-0.984,1.788-1.263c0.658-0.377,1.937-0.981,3.381-1.574V8.535C62.436,8.026,60.842,7.451,59.479,6.524
		C59.479,6.524,60.842,7.451,59.479,6.524z M58.775,9.6c0.492,0.177,1.158,0.462,2.334,1.009v9.397l-3.354-1.455V9.259
		C58.248,9.342,58.433,9.48,58.775,9.6C58.775,9.6,58.433,9.48,58.775,9.6z"/>
	<path fill="#FFFFFF" d="M27.522,19.469l-0.808,0.659l-1.769-1.346V3.976L26.15,2.79l-2.891-2.409l-2.847,2.4l1.188,1.195v12.843
		c0,1.17-0.02,1.623-0.038,1.743c-0.065,0.345-0.167,0.64-0.315,0.889c-0.149,0.252-0.362,0.463-0.63,0.631l-0.019,0.205
		c0.714,0.202,1.492,0.544,1.928,0.796c0.435,0.26,1.094,0.771,1.966,1.53l3.39-2.625L27.522,19.469z"/>
	<path fill="#FFFFFF" d="M43.857,19.426c-1.065-0.15-2.195-0.512-2.864-0.884c-0.629-0.352-1.521-0.899-2.428-1.945
		c0.833-0.658,2.242-2.019,2.956-2.853c0.363-0.431,0.601-0.845,0.703-1.235c0.092-0.286,0.148-0.852,0.148-1.704V4.264l1.484-1.289
		L43.857,19.426L43.857,19.426z M52.919,16.394l-0.361,0.313c-1.204,1.047-2.519,1.668-3.631,2.133
		c-1.11,0.463-2.354,0.692-3.717,0.692l-0.704-0.005V3.617c1.251,0.639,1.909,0.924,3.272,0.924c1.89,0,3.613-1.325,4.958-3.317
		l-0.52-0.279c-0.686,0.872-1.481,1.29-2.42,1.29c-1.14,0-2.482-0.63-4.168-1.743l-6.57,5.533v6.625
		c0,1.779-0.047,2.269-0.175,2.614c-0.12,0.35-0.676,0.881-0.676,0.881c-1.299-1.698-1.965-3.571-1.965-5.561
		c0-1.649,0.444-3.187,1.326-4.587c0.685-1.094,1.575-2.224,3.029-3.261l0.186-0.12l-0.353-0.398l-0.177,0.101
		c-2.204,1.346-3.945,2.576-4.938,4.003c-1.269,1.826-1.917,3.836-1.917,5.979c0,1.742,0.462,3.453,1.36,5.092
		c0.9,1.642,2.159,2.923,3.753,3.804c1.593,0.879,3.316,1.325,5.104,1.325c1.214,0,2.456-0.223,3.688-0.63
		c1.232-0.419,2.297-0.99,3.179-1.696c0.871-0.694,1.667-1.669,2.491-3.002l0.307-0.484L52.919,16.394z"/>
	<path fill="#FFFFFF" d="M107.828,6.524l-3.242,2.865c0-0.521-0.212-0.9-0.398-1.169c-0.35-0.5-0.96-1.056-1.784-1.695l-3.319,2.882
		l0.365,0.444c0.386-0.39,0.749-0.63,0.97-0.63c0.194,0,0.381,0.121,0.556,0.371c0.164,0.24,0.25,0.75,0.25,1.503v6.16
		c0,0.872-0.064,1.454-0.193,1.759c-0.129,0.307-0.397,0.614-0.833,0.909v0.323c0.637,0.168,1.426,0.528,1.955,0.835
		c0.538,0.315,1.206,0.825,1.983,1.539l3.464-2.657l-0.416-0.493l-0.824,0.659l-1.774-1.346V10.11l1.051-0.964
		c0.761,0.973,1.276,1.577,2.13,1.577c1.437,0,3.448-2.309,3.448-2.309L110.952,8.1C109.607,9.314,108.564,7.22,107.828,6.524
		C107.828,6.524,108.564,7.22,107.828,6.524z"/>
	<path fill="#FFFFFF" d="M7.588,18.592c-0.63-0.354-1.52-0.91-2.418-1.949c0.833-0.668,2.242-2.029,2.946-2.861
		c0.38-0.428,0.612-0.845,0.705-1.234c0.083-0.219,0.12-0.602,0.14-1.148c0.481,0.307,0.981,0.594,1.489,0.813v7.247
		C9.396,19.321,8.264,18.959,7.588,18.592C7.588,18.592,8.264,18.959,7.588,18.592z M10.452,3.023v5.956l-1.482,1.25V4.3
		L10.452,3.023z M19.515,16.43l-0.363,0.316c-1.204,1.046-2.509,1.658-3.622,2.122c-1.111,0.474-2.361,0.704-3.715,0.704
		l-0.714-0.021v-7.088c0.427,0.151,0.844,0.232,1.252,0.232c1.638,0,3.334-1.686,4.484-3.373l-0.5-0.296
		c-0.583,0.741-1.206,1.161-1.992,1.161c-0.901,0-1.947-0.465-3.245-1.28V3.652c1.252,0.64,1.91,0.925,3.271,0.925
		c1.9,0,3.614-1.323,4.967-3.317l-0.527-0.279c-0.686,0.872-1.483,1.298-2.411,1.298c-1.14,0-2.491-0.63-4.179-1.751L5.651,6.061
		v6.625c0,1.778-0.047,2.27-0.167,2.609c-0.12,0.356-0.677,0.895-0.677,0.895c-1.306-1.705-1.971-3.577-1.971-5.572
		c0-1.649,0.453-3.187,1.324-4.587c0.685-1.081,1.576-2.222,3.031-3.25l0.185-0.129L7.025,2.262L6.857,2.364
		C4.652,3.708,2.911,4.93,1.917,6.358C0.638,8.182,0,10.193,0,12.344c0,1.731,0.454,3.446,1.353,5.087
		c0.901,1.639,2.168,2.917,3.762,3.8c1.594,0.879,3.309,1.322,5.105,1.322c1.215,0,2.456-0.21,3.68-0.628
		c1.231-0.419,2.297-0.984,3.178-1.696c0.873-0.696,1.678-1.658,2.494-3.003l0.305-0.479L19.515,16.43z"/>
	<path fill="#FFFFFF" d="M84.851,8.879l1.531-1.502l0.415,0.39c-0.545,0.491-0.914,0.879-1.102,1.167
		c-0.197,0.295-0.315,0.592-0.37,0.879c-0.057,0.289-0.084,0.89-0.084,1.799V18.2c0,0.795,0.071,1.324,0.24,1.593
		c0.168,0.261,0.324,0.389,0.465,0.389c0.205,0,0.335-0.194,0.833-0.582l0.331,0.426l-3.204,2.587
		c-0.715-0.568-1.306-1.106-1.52-1.474c-0.305-0.538-0.537-1.058-0.537-1.67v-8.96l-1.539-1.335l-1.835,1.658l0.01,8.293
		l1.195,1.291l-2.826,2.195l-2.862-2.188l1.148-1.298v-7.263c0-1.028-0.12-1.343-0.241-1.575c-0.177-0.343-0.595-0.741-1.259-1.186
		l-1.826,1.546v8.48l1.232,1.289l-2.865,2.195l-2.897-2.195l1.242-1.289l-0.012-7.773c0-0.807-0.177-1.382-0.398-1.743
		c-0.177-0.269-0.333-0.407-0.472-0.407c-0.175,0-0.528,0.204-1.065,0.602l-0.307-0.483l3.42-2.798
		c0.658,0.474,1.085,0.871,1.345,1.149c0.285,0.314,0.509,0.629,0.603,0.925c0.092,0.288,0.176,0.63,0.176,1.382l4.112-3.458
		c0.941,0.762,1.576,1.399,1.911,1.872c0.351,0.491,0.529,0.909,0.594,1.751l3.906-3.623L84.851,8.879z"/>
	<g>
		<path fill="#FFFFFF" d="M120.581,3.401c0.762,0.964,1.65,2.03,2.503,2.03c1.435,0,3.443-2.308,3.443-2.308l-0.256-0.314
			c-1.346,1.213-2.392-0.881-3.123-1.577L120.581,3.401z"/>
		<path fill="#FFFFFF" d="M126.41,19.608c-0.49,0.391-0.63,0.585-0.826,0.585c-0.146,0-0.297-0.133-0.463-0.391
			c-0.166-0.271-0.297-0.79-0.297-1.593v-8.118l1.197-1.186l-2.874-2.399l-2.844,2.391l1.185,1.205v9.375
			c0,0.612,0.223,1.131,0.529,1.668c0.214,0.373,0.815,0.899,1.521,1.466l3.205-2.575L126.41,19.608z"/>
	</g>
</g>
</svg>
