<svg id="Capa_1" xmlns="http://www.w3.org/2000/svg" viewBox="0 0 220.7 35"><style>.st0{fill:#fff}</style><g id="Group_3" transform="translate(9.3 51)"><path id="Path_1" d="M70.9-36.1l-2.1.8v7.4c0 .5 0 1.1-.2 1.6-.1.3-.3.5-.6.6v.3a21.7 21.7 0 0 1 4.6 1.7l4.3-3-.3-.4-1.8 1.3-3.1-1.3v-2.3l5.7-4-3.6-4.2-2.9 1.5m.8 0l3.3 3.8-3.3 2.3v-6.1z"/><path id="Path_2" d="M91.6-37.6l3.4 2-1.5 2.2-2.8-1.6v8l2.6 1.2 1.4-1 .3.4-3.7 2.7a14.7 14.7 0 0 0-4.4-1.6v-.3c.3-.2.5-.4.6-.7.2-.5.2-1 .2-1.5V-35a9.6 9.6 0 0 0 4-2.6"/><path id="Path_3" d="M107.6-37.6c-1.3 1.1-2.8 2-4.4 2.5v7.1c0 .5 0 1-.2 1.5-.1.3-.3.5-.6.7l.1.3c.7 0 1.4.1 2 .3 1 .4 2.1.8 3 1.4l1.5-1 3-1.4V-36c-1.6-.3-3-.9-4.4-1.7M107-35l2 .8v8.2l-3-1.3v-8l1 .3"/><path id="Path_4" d="M42.6-37.6c-1.3 1.1-2.8 2-4.4 2.5v7.1c0 .5 0 1-.2 1.5-.1.3-.3.5-.6.7l.2.3c.7 0 1.4.1 2 .3 1 .4 2 .8 2.9 1.4l1.5-1 3-1.4V-36c-1.6-.3-3-.9-4.4-1.7M42-35l2 .8v8.2l-2.9-1.2v-8l1 .3"/><path id="Path_5" d="M14.8-26.4l-.8.5-1.5-1.2v-12.8l1-1-2.5-2-2.4 2 1 1v12.6c0 .3-.2.6-.3.8-.1.3-.3.5-.6.6v.1l1.7.7 1.7 1.4 3-2.3-.3-.4z"/><path id="Path_6" d="M28.9-26.5c-.8-.1-1.6-.4-2.4-.8-.8-.4-1.5-.9-2.1-1.6a29.5 29.5 0 0 0 3.2-3.5v-7.2l1.4-1.1v14.2h-.1zm8-2.6l-.3.2c-1 .8-2 1.4-3.2 1.9-1 .4-2.2.6-3.3.6h-.6v-13.8a6 6 0 0 0 2.9.8c1.6 0 3.1-1.1 4.3-2.8l-.4-.3c-.5.7-1.3 1.1-2.1 1.1a7.5 7.5 0 0 1-3.7-1.5l-5.7 4.8v5.7c0 .8 0 1.5-.2 2.3l-.6.8a7.8 7.8 0 0 1-1.7-4.8c0-1.4.4-2.8 1.2-4 .7-1.1 1.6-2 2.6-2.8l.2-.1-.3-.4-.2.1c-1.7.9-3.1 2.1-4.3 3.5A8.7 8.7 0 0 0 24.3-25c1.3.8 2.9 1.2 4.4 1.2 1.1 0 2.2-.2 3.3-.6 1-.3 1.9-.8 2.7-1.4.9-.7 1.6-1.6 2.2-2.6l.3-.4-.3-.3z"/><path id="Path_7" d="M84.8-37.6L82-35.1c0-.4-.2-.7-.4-1-.4-.6-.9-1.1-1.5-1.5l-3 2.5.4.4c.2-.3.5-.5.8-.6.2 0 .4.1.5.3.2.4.3.8.3 1.3v5.4c0 .5 0 1-.2 1.5l-.7.8v.3l1.7.7 1.7 1.3 3-2.3-.4-.4-.7.6L82-27v-7.5l.9-.8c.7.8 1.1 1.3 1.8 1.3 1.3 0 3-2 3-2l-.2-.3c-1.1 1.1-2-.7-2.7-1.3"/><path id="Path_8" d="M-2.7-27.2c-.8-.4-1.4-1-2-1.7l2.5-2.5c.3-.3.5-.6.6-1l.2-1 1.3.7v6.2c-.9-.1-1.8-.3-2.6-.7m2.5-13.5v5.3l-1.3 1v-5l1.3-1.3zm8 11.6l-.4.3A9.7 9.7 0 0 1 1-26.4H.4v-6l1 .2c1.5 0 3-1.5 4-3l-.4-.2c-.4.6-1.1 1-1.8 1-1-.1-2-.5-2.8-1.1V-40c.8.5 1.8.8 2.8.8 1.7 0 3.2-1.2 4.4-3l-.6-.2c-.5.6-1.2 1-2 1a7.3 7.3 0 0 1-3.7-1.4l-5.8 4.7v5.8c.1.7 0 1.5-.1 2.2l-.6.8a7.8 7.8 0 0 1-.6-8.8 9 9 0 0 1 2.7-2.8l.1-.1-.3-.3h-.1c-1.7.9-3.1 2.1-4.3 3.5a8.7 8.7 0 0 0-.5 9.6 8.7 8.7 0 0 0 3.3 3.3 9.9 9.9 0 0 0 7.6.6c1-.3 2-.8 2.8-1.5.9-.7 1.6-1.6 2.2-2.6l.2-.4-.1-.3z"/><path id="Path_9" d="M64.8-35.6l1.3-1.3.3.4-1 1-.2.7-.1 1.6v5.7c0 .5 0 1 .2 1.4.1.2.3.3.4.3.2 0 .3-.2.7-.5l.3.4-2.8 2.2a8 8 0 0 1-1.3-1.3c-.3-.4-.5-.9-.5-1.4v-7.8l-1.3-1.1-1.6 1.3v7.2l1 1.1-2.4 2-2.5-2 1-1V-33c0-.4 0-.9-.2-1.3l-1.1-1-1.6 1.3v7.3l1 1.1-2.4 2-2.6-2 1.1-1v-6.8c0-.5-.1-1-.4-1.5-.1-.3-.3-.4-.4-.4l-.9.5-.3-.4 3-2.4 1.2 1 .5.8.2 1.2 3.5-3 1.7 1.6c.3.4.5 1 .5 1.5l3.5-3 2.2 1.9z"/><path id="Path_10" d="M95.9-40.4c.7.8 1.4 1.7 2.2 1.7 1.2 0 3-2 3-2l-.2-.2c-1.2 1-2.1-.8-2.8-1.4l-2.2 1.9z"/><path id="Path_11" d="M101-26.3l-.7.5c-.2 0-.3 0-.4-.3-.2-.4-.3-.9-.3-1.4v-7l1-1-2.5-2.1-2.4 2 1 1v8.2c0 .5.2 1 .5 1.4l1.3 1.3 2.8-2.2-.3-.4z"/></g><g id="Group_5" transform="translate(193.4 56.6)"><g id="Group_4"><path id="Path_12" d="M.9-40.2l-1.8 3.4c-.5.9-2 3.3-2.7 3.3-.9 0-1.4-.7-1.5-2-.1-.8 0-1.6.2-2.4l-1 1c-1 1-1.7 1.6-2.2 1.6-.7 0-1.3-.7-1.2-1.4v-.1c0-2 1.7-4.5 3.8-4.5.3 0 .6.1.8.3v1.1h-.2c0-.3.2-.8-.1-.8-1.3 0-3 3.2-3 4.2 0 .5.4.5.5.5.2 0 .6-.1 1.6-1.2.5-.5 1-1 1-1.2l.3-.9.7-2v-.1h.1l.6.3c.5.2.7.4.6.6-.5 1.7-.8 3.4-1 5.1 0 .3-.1 1.4.3 1.4a28 28 0 0 0 4-6.3h.2v.1z"/><path id="Path_13" d="M10.4-40.3s-.7 1.4-1.6 2.7c-1.3 1.8-2.3 2.7-3 2.7-.9.1-1.6-.5-1.8-1.4-.1-.7 0-1.4.2-2 0 0 .4-1.2 0-1.2-.1 0-.7.3-2.2 2.1a11 11 0 0 1-1.5 2v.3l-.4.1c-.7 0-1.2-.7-1.2-.8.1-1.1.4-2.3.9-3.3l.7-1.3c.4-.2.9-.1 1.1.3l.1.2.1.5-1 3.2 1.6-2.1c1.5-2 2.8-3 3.6-3 1.1 0 .6 1.5.3 2.4l-.5 2c0 .2-.3 1.4.3 1.4.4 0 1.1-.4 2.6-2.4l1.5-2.5.2.1c-.1-.1 0 0 0 0zm-5.1-1.3s0 .1-.1 0c-.2-.2-.4-.2-.7-.2-.4 0-.9.3-1.4.3-.5.1-.9-.2-1-.7l.2-.1c.2.3.3.4.5.4.6 0 1.1-.4 1.5-.4.4 0 .8.3 1 .7z"/><path id="Path_14" d="M16.3-40.4l.1.1c-.3.7-.8 1.3-1.5 1.8-.4.3-1 .5-1.5.5h-.2c-.4.8-1.6 2.8-2.6 2.8-.9 0-1.6-.7-1.6-1.6v-.2c-.1-.9.2-1.9.6-2.7l.7-.8c.3 0 .5.1.7.3.3.3.4.8.3 1.2-.4.7-.7 1.4-.8 2.2 0 .3 0 .8.5.8.8 0 1.6-1.3 2-2a2.4 2.4 0 0 1-1.7-2.5c0-.7.5-1.7 1.4-1.7.7 0 1.2.6 1.2 1.5s-.2 1.7-.6 2.5c1.3-.1 2.5-.9 3-2.2zM13-38.3a5 5 0 0 0 .6-2.4c0-.7-.3-1.3-1-1.3-.5 0-.8.9-.8 1.5 0 1.1.4 2 1.2 2.2z"/><path id="Path_15" d="M18.4-37.6v1.4a3.7 3.7 0 0 1-3.4 2.4c-.5 0-.9-.4-1-.9.1-.6.4-1 .9-1.3l1.9-1-.4-1.4c-.3-.8-.5-1.6-.5-2.4 0-1.2 1-2.2 2.2-2.2.4 0 .8.4.8.8v.1a2 2 0 0 1-.6 1h-.1v-.1c.2-.3.4-.6.4-1 0-.1 0-.6-.5-.6-.6 0-.8.9-1 1.4 0 .8.2 1.6.7 2.2l.6 1.4a7 7 0 0 0 3.1-2.5h.2v.1a7 7 0 0 1-3.3 2.6zM15-34.2c.9-.2 1.6-1 1.7-1.9l.1-.7-1.8 1c-.4.2-.7.6-.8 1.1 0 .3.3.6.7.5h.1z"/></g></g><g id="Group_9" transform="translate(146.5 46.4)"><g id="Group_6" transform="translate(0 5.8)"><path id="Path_16" class="st0" d="M-9.2-27.6c2.1 0 2.7-.5 2.7-1.4v-11.3c0-1.4-.3-1.9-2.8-2v-.2l6.1-.5v14c0 1 .5 1.3 2.7 1.4v.3h-8.7v-.3z"/></g><g id="Group_7" transform="translate(9.5)"><path id="Path_17" class="st0" d="M-3.1-28.5c-3.4-1.6-5.5-3.7-5.5-7 0-4.3 4.2-7.5 9-7.5 5 0 9 2.6 9 6.3 0 3-2.2 4.9-5.8 6.4 4.5 1.8 6.8 4.1 6.8 7.7 0 4.5-5 7.9-9.7 7.9-6.2 0-10-2.9-10-7 0-2.8 2.4-5.3 6.2-6.8zm1 .5a7.5 7.5 0 0 0-3.2 6.1c0 4 2 6.5 5.7 6.5 3.3 0 5.6-1.5 5.6-5.5 0-3.2-2.3-5-7-6.7l-1-.4h-.1zm4.3-2.8l.5.2c2-1.4 2.7-3.2 2.7-5.8 0-3.5-1.8-5.8-5-5.8-2.9 0-4.9 1.5-4.9 5.1 0 3 2.4 4.8 6.8 6.3h-.1z"/></g><g id="Group_8" transform="translate(29.6 5.2)"><path id="Path_18" class="st0" d="M-9.3-34.7c0-4.7 2.6-8.3 6.6-8.3s6.5 3.5 6.5 8.2c0 4.5-2.6 8.1-6.6 8.1s-6.5-3.4-6.5-8zm9.4 0c0-5.3-.7-7.8-3-7.8-2.2 0-2.7 2.5-2.7 7.7s.7 7.7 3 7.7c2.2 0 2.7-2.5 2.7-7.6z"/></g></g></svg>