<?xml version="1.0" standalone="no"?>
<!DOCTYPE svg PUBLIC "-//W3C//DTD SVG 1.1//EN" "http://www.w3.org/Graphics/SVG/1.1/DTD/svg11.dtd" >
<svg xmlns="http://www.w3.org/2000/svg">
<metadata>Generated by IcoMoon</metadata>
<defs>
<font id="icomoon" horiz-adv-x="1024">
<font-face units-per-em="1024" ascent="960" descent="-64" />
<missing-glyph horiz-adv-x="1024" />
<glyph unicode="&#x20;" horiz-adv-x="512" d="" />
<glyph unicode="&#xe900;" glyph-name="add" horiz-adv-x="819" d="M729.088 599.552h-270.336v270.336c0 27.14-22.012 49.152-49.152 49.152s-49.152-22.012-49.152-49.152v-270.336h-270.336c-27.14 0-49.152-22.012-49.152-49.152s22.012-49.152 49.152-49.152h270.336v-270.336c0-27.14 22.012-49.152 49.152-49.152s49.152 22.012 49.152 49.152v270.336h270.336c27.14 0 49.152 22.012 49.152 49.152s-22.012 49.152-49.152 49.152z" />
<glyph unicode="&#xe901;" glyph-name="add-circle" d="M312.693-23.772c-63.269 27.12-117.281 64.138-162.726 109.705l-0.011 0.011c-45.58 45.459-82.599 99.475-108.446 159.438l-1.27 3.311c-25.44 58.519-40.24 126.685-40.24 198.307 0 0.345 0 0.69 0.001 1.036v-0.053c-0.001 0.292-0.001 0.638-0.001 0.985 0 71.622 14.8 139.787 41.509 201.603l-1.268-3.298c27.116 63.278 64.135 117.299 109.705 162.749l0.011 0.011c45.461 45.571 99.471 82.589 159.425 108.445l3.312 1.271c58.528 25.44 126.702 40.24 198.334 40.24 0.34 0 0.681 0 1.021-0.001h-0.053c0.291 0.001 0.635 0.001 0.979 0.001 71.631 0 139.806-14.8 201.633-41.509l-3.299 1.268c63.268-27.122 117.279-64.14 162.726-109.705l0.011-0.011c45.593-45.46 82.62-99.48 108.47-159.45l1.27-3.31c25.44-58.513 40.241-126.671 40.241-198.286 0-0.353 0-0.706-0.001-1.059v0.055c0.001-0.297 0.001-0.649 0.001-1.001 0-71.616-14.8-139.775-41.509-201.585l1.268 3.297c-27.121-63.276-64.148-117.293-109.728-162.737l-0.012-0.012c-45.456-45.578-99.468-82.597-159.426-108.446l-3.311-1.27c-58.528-25.44-126.702-40.24-198.334-40.24-0.344 0-0.689 0-1.033 0.001h0.054c-0.287-0.001-0.627-0.001-0.968-0.001-71.631 0-139.806 14.8-201.633 41.509l3.299-1.268zM35.339 447.994c0.301-263.126 213.519-476.352 476.613-476.667h0.030c263.134 0.308 476.363 213.533 476.678 476.636v0.031c-0.315 263.125-213.531 476.345-476.624 476.667h-0.031c-263.134-0.301-476.365-213.532-476.667-476.638v-0.029zM458.432 184.953v211.081h-211.057v105.511h211.081v211.081h105.523v-211.081h211.069v-105.511h-211.069v-211.081z" />
<glyph unicode="&#xe902;" glyph-name="home" d="M1024 352l-192 192v288h-128v-160l-192 192-512-512v-32h128v-320h320v192h128v-192h320v320h128z" />
<glyph unicode="&#xe903;" glyph-name="comercio" horiz-adv-x="932" d="M913.174 220.306l-16.869-14.458c-48.842-40.476-105.468-73.854-166.956-97.408l-4.112-1.384c-49.121-19.858-106.089-31.38-165.748-31.38-2.705 0-5.405 0.024-8.099 0.071l0.405-0.006h-33.726v739.694c60.23-31.327 91.557-43.373 154.199-43.373 89.146 0 168.657 62.642 233.71 154.199l-24.092 12.046c-25.126-36.277-66.389-59.838-113.177-60.23h-0.060c-53.033 0-115.649 28.915-195.161 81.923l-308.449-257.802v-308.411c0-81.923-2.412-106.066-7.223-120.473-4.823-16.869-31.327-40.962-31.327-40.962-56.141 70.131-90.467 159.855-91.555 257.56l-0.002 0.243c0 0.047 0 0.102 0 0.158 0 78.761 23.37 152.064 63.553 213.353l-0.911-1.481c37.45 60.442 84.903 110.954 140.58 150.683l1.573 1.067 9.634 4.823-16.857 19.319-7.223-4.823c-103.603-62.642-185.526-120.473-231.311-185.526-58.597-73.845-94.008-168.398-94.008-271.222 0-2.057 0.014-4.11 0.042-6.16l-0.003 0.31c0.554-86.848 23.722-168.167 63.901-238.516l-1.259 2.394c41.3-74.667 101.225-134.592 173.632-174.743l2.26-1.15c68.664-39.231 150.863-62.452 238.467-62.68h0.067c62.156 0.213 121.773 10.783 177.312 30.074l-3.831-1.158c57.299 18.421 106.979 45.541 150.306 80.26l-0.918-0.711c40.962 31.327 79.549 77.1 118.061 139.741l14.458 21.68zM489.114 80.565c-50.292 7.064-95.765 21.452-137.534 42.181l2.604-1.169c-44.496 23.663-82.081 54.329-112.761 90.973l-0.476 0.584c50.075 41.267 94.96 84.611 136.243 131.219l1.086 1.249c15.141 15.872 26.743 35.26 33.451 56.805l0.275 1.026c4.839 19.449 7.615 41.778 7.615 64.754 0 5.204-0.142 10.375-0.424 15.509l0.031-0.714v301.125l69.877 60.23z" />
<glyph unicode="&#xe904;" glyph-name="menu" d="M276.436 638.11h501.209v-59.502h-501.209v59.502zM276.436 468.054h501.209v-59.502h-501.209v59.502zM276.436 298.050h501.209v-59.502h-501.209v59.502zM511.992 909.101c-254.248 0-461.093-206.845-461.093-461.093s206.845-461.093 461.093-461.093c254.247 0 461.093 206.845 461.093 461.093s-206.845 461.093-461.093 461.093zM511.992 960c282.766 0 511.992-229.227 511.992-511.992s-229.227-511.992-511.992-511.992c-282.766 0-511.992 229.227-511.992 511.992s229.227 511.992 511.992 511.992z" />
<glyph unicode="&#xe905;" glyph-name="img" d="M512 924.661c-64.364 0-126.785-12.598-185.527-37.444-56.756-24.006-107.736-58.38-151.523-102.167s-78.161-94.767-102.167-151.523c-24.846-58.742-37.444-121.163-37.444-185.527s12.598-126.785 37.444-185.527c24.006-56.756 58.38-107.736 102.167-151.523s94.767-78.161 151.523-102.167c58.742-24.846 121.163-37.444 185.527-37.444s126.785 12.598 185.527 37.444c56.756 24.006 107.736 58.38 151.523 102.167s78.161 94.767 102.167 151.523c24.846 58.742 37.444 121.163 37.444 185.527s-12.598 126.785-37.444 185.527c-24.006 56.756-58.38 107.736-102.167 151.523s-94.767 78.161-151.523 102.167c-58.742 24.846-121.163 37.444-185.527 37.444zM512 960c282.77 0 512-229.23 512-512s-229.23-512-512-512c-282.77 0-512 229.23-512 512s229.23 512 512 512zM599.758 452.488c0-48.474-39.296-87.77-87.77-87.77s-87.77 39.296-87.77 87.77c0 48.474 39.296 87.77 87.77 87.77s87.77-39.296 87.77-87.77zM432.005 718.471l-48.791-54.693h-84.507c-29.55-0.489-53.317-24.559-53.317-54.179 0-0.185 0.001-0.369 0.003-0.553v0.028-328.179c-0.002-0.153-0.002-0.333-0.002-0.513 0-29.621 23.767-53.69 53.271-54.179l0.046-0.001h426.539c29.55 0.489 53.317 24.559 53.317 54.179 0 0.181-0.001 0.361-0.003 0.541v-0.028 328.179c0.002 0.153 0.002 0.333 0.002 0.513 0 29.621-23.767 53.69-53.271 54.179l-0.046 0.001h-84.507l-48.791 54.704zM511.976 308.235c-73.834 1.017-133.296 61.109-133.296 135.088 0 0.584 0.004 1.167 0.011 1.75l-0.001-0.088c-0.006 0.49-0.010 1.069-0.010 1.649 0 73.979 59.462 134.071 133.2 135.087l0.096 0.001c73.839-1.011 133.308-61.105 133.308-135.088 0-0.58-0.004-1.159-0.011-1.737l0.001 0.088c0.007-0.494 0.010-1.077 0.010-1.661 0-73.984-59.469-134.077-133.213-135.087l-0.095-0.001z" />
<glyph unicode="&#xe906;" glyph-name="video" d="M672.968 481.619l-282.71 164.255c-30.886 18.282-60.476 3.534-60.476-32.712v-329.581c0-36.21 29.59-50.959 60.476-32.653l280.425 164.231c31.039 18.305 33.242 48.19 2.285 66.46zM512-64c-0.287-0.001-0.627-0.001-0.968-0.001-71.63 0-139.804 14.8-201.63 41.508l3.299-1.268c-63.267 27.129-117.277 64.15-162.724 109.716l-0.011 0.011c-45.578 45.461-82.6 99.475-108.456 159.434l-1.271 3.313c-25.44 58.527-40.24 126.701-40.24 198.331 0 0.336 0 0.673 0.001 1.009v-0.053c-0.001 0.287-0.001 0.627-0.001 0.968 0 71.63 14.8 139.804 41.508 201.63l-1.268-3.299c27.129 63.271 64.15 117.285 109.717 162.737l0.010 0.010c45.458 45.576 99.468 82.598 159.422 108.455l3.313 1.272c58.527 25.44 126.701 40.24 198.331 40.24 0.34 0 0.681 0 1.021-0.001h-0.053c0.287 0.001 0.627 0.001 0.968 0.001 71.63 0 139.804-14.8 201.63-41.508l-3.299 1.268c63.272-27.126 117.286-64.147 162.736-109.716l0.011-0.011c45.577-45.462 82.598-99.476 108.456-159.434l1.271-3.313c25.44-58.527 40.24-126.701 40.24-198.331 0-0.34 0-0.681-0.001-1.021v0.053c0.001-0.284 0.001-0.62 0.001-0.956 0-71.631-14.8-139.805-41.509-201.631l1.269 3.3c-27.126-63.271-64.147-117.286-109.715-162.735l-0.011-0.011c-45.46-45.579-99.475-82.6-159.434-108.456l-3.313-1.271c-58.527-25.44-126.701-40.24-198.331-40.24-0.34 0-0.681 0-1.021 0.001h0.053zM512 924.661c-263.126-0.308-476.348-213.534-476.649-476.632v-0.029c0.301-263.127 213.523-476.353 476.62-476.661h0.029c263.129 0.308 476.353 213.533 476.661 476.632v0.029c-0.308 263.129-213.533 476.353-476.632 476.661h-0.029z" />
<glyph unicode="&#xe907;" glyph-name="close-circle" d="M754.777 650.927l-49.91 49.922-197.897-197.897-197.897 197.897-49.922-49.922 197.897-197.897-197.897-197.897 49.922-49.922 197.897 197.897 197.897-197.897 49.922 49.922-197.897 197.897zM511.988-64c-0.287-0.001-0.627-0.001-0.968-0.001-71.63 0-139.804 14.8-201.63 41.508l3.299-1.268c-63.267 27.129-117.277 64.15-162.724 109.716l-0.011 0.011c-45.578 45.461-82.6 99.475-108.456 159.434l-1.271 3.313c-25.44 58.527-40.24 126.701-40.24 198.331 0 0.336 0 0.673 0.001 1.009v-0.053c-0.001 0.287-0.001 0.627-0.001 0.968 0 71.63 14.8 139.804 41.508 201.63l-1.268-3.299c27.129 63.271 64.15 117.285 109.717 162.737l0.010 0.010c45.458 45.576 99.468 82.598 159.422 108.455l3.313 1.272c58.527 25.44 126.701 40.24 198.331 40.24 0.34 0 0.681 0 1.021-0.001h-0.053c0.287 0.001 0.627 0.001 0.968 0.001 71.63 0 139.804-14.8 201.63-41.508l-3.299 1.268c63.272-27.126 117.286-64.147 162.736-109.716l0.011-0.011c45.577-45.462 82.598-99.476 108.456-159.434l1.271-3.313c25.44-58.527 40.24-126.701 40.24-198.331 0-0.34 0-0.681-0.001-1.021v0.053c0.001-0.284 0.001-0.62 0.001-0.956 0-71.631-14.8-139.805-41.509-201.631l1.269 3.3c-27.126-63.271-64.147-117.286-109.715-162.735l-0.011-0.011c-45.46-45.579-99.475-82.6-159.434-108.456l-3.313-1.271c-58.527-25.44-126.701-40.24-198.331-40.24-0.34 0-0.681 0-1.021 0.001h0.053zM511.988 924.661c-263.126-0.308-476.348-213.534-476.649-476.632v-0.029c0.301-263.127 213.523-476.353 476.62-476.661h0.029c263.129 0.308 476.353 213.533 476.661 476.632v0.029c-0.308 263.129-213.533 476.353-476.632 476.661h-0.029z" />
<glyph unicode="&#xe908;" glyph-name="back" d="M738.376 960l-495.779-491.557v-40.886l495.779-491.557 43.026 40.886-470.073 471.114 469.524 471.114z" />
<glyph unicode="&#xe909;" glyph-name="hamburguer" d="M96.84 719.562h836.838v-79.144h-836.838v79.144zM96.84 493.422h836.838v-79.144h-836.838v79.144zM96.84 267.269h836.838v-79.144h-836.838v79.144z" />
<glyph unicode="&#xe90a;" glyph-name="ribbon" d="M312.693-23.772c-63.269 27.12-117.281 64.138-162.726 109.705l-0.011 0.011c-45.58 45.459-82.599 99.475-108.446 159.438l-1.27 3.311c-25.44 58.519-40.24 126.685-40.24 198.307 0 0.345 0 0.69 0.001 1.036v-0.053c-0.001 0.292-0.001 0.638-0.001 0.985 0 71.622 14.8 139.787 41.509 201.603l-1.268-3.298c27.116 63.278 64.135 117.299 109.705 162.749l0.011 0.011c45.461 45.571 99.471 82.589 159.425 108.445l3.312 1.271c58.528 25.44 126.702 40.24 198.334 40.24 0.34 0 0.681 0 1.021-0.001h-0.053c0.291 0.001 0.635 0.001 0.979 0.001 71.631 0 139.806-14.8 201.633-41.509l-3.299 1.268c63.268-27.122 117.279-64.14 162.726-109.705l0.011-0.011c45.593-45.46 82.62-99.48 108.47-159.45l1.27-3.31c25.44-58.513 40.241-126.671 40.241-198.286 0-0.353 0-0.706-0.001-1.059v0.055c0.001-0.297 0.001-0.649 0.001-1.001 0-71.616-14.8-139.775-41.509-201.585l1.268 3.297c-27.121-63.276-64.148-117.293-109.728-162.737l-0.012-0.012c-45.456-45.578-99.468-82.597-159.426-108.446l-3.311-1.27c-58.528-25.44-126.702-40.24-198.334-40.24-0.344 0-0.689 0-1.033 0.001h0.054c-0.287-0.001-0.627-0.001-0.968-0.001-71.631 0-139.806 14.8-201.633 41.509l3.299-1.268zM35.339 447.994c0.301-263.126 213.519-476.352 476.613-476.667h0.030c263.134 0.308 476.363 213.533 476.678 476.636v0.031c-0.315 263.125-213.531 476.345-476.624 476.667h-0.031c-263.134-0.301-476.365-213.532-476.667-476.638v-0.029zM515.080 312.621l-161.689-127.669v527.673h323.412v-527.661z" />
<glyph unicode="&#xe90b;" glyph-name="linkedin-circle" d="M312.695-23.757c-186.296 79.9-314.418 261.737-314.418 473.498 0 283.731 230.010 513.741 513.741 513.741s513.741-230.010 513.741-513.741c0-283.731-230.010-513.741-513.741-513.741-0.007 0-0.013 0-0.020 0h0.001c-0.183 0-0.399 0-0.616 0-71.753 0-140.049 14.801-202.003 41.515l3.314-1.272zM35.362 448c0.019-263.225 213.41-476.604 476.638-476.604 263.24 0 476.638 213.398 476.638 476.638s-213.398 476.638-476.638 476.638v0c-263.126-0.31-476.346-213.542-476.638-476.643v-0.029zM735.334 238.114v0zM637.372 238.114v158.14c0 38.263-10.24 64.307-44.373 64.307-21.868-0.199-40.341-14.512-46.766-34.26l-0.099-0.351c-2.077-6-3.276-12.915-3.276-20.109 0-1.031 0.025-2.056 0.073-3.074l-0.005 0.144v-164.796h-98.679l-0.512 291.089h98.509l0.58-40.96c15.829 28.284 45.601 47.089 79.765 47.089 1.406 0 2.805-0.032 4.196-0.095l-0.197 0.007c62.259 0 108.783-40.619 108.783-127.966v-169.062zM301.158 238.114l-0.546 291.089h97.212l0.546-291.089zM346.761 567.262c-0.902-0.059-1.956-0.093-3.018-0.093-27.202 0-49.254 22.052-49.254 49.254s22.052 49.254 49.254 49.254c1.483 0 2.951-0.066 4.4-0.194l-0.188 0.013c1.126 0.092 2.437 0.144 3.761 0.144 27.221 0 49.289-22.067 49.289-49.289s-22.067-49.289-49.289-49.289c-1.552 0-3.088 0.072-4.604 0.212l0.194-0.015z" />
<glyph unicode="&#xe90c;" glyph-name="user" d="M511.238 415.983c105.755-0.276 192.115 92.791 191.839 207.097-0.276 113.754-86.375 206.269-191.549 206.269-104.913 0-190.968-92.791-190.968-206.545 0-113.463 85.765-206.53 190.678-206.821zM778.173 279.032c-17.42 71.553-79.596 103.969-131.362 143.716-90.556-62.654-176.35-64.614-271.087 0.784-27.582-22.428-56.877-44.712-84.444-68.752-26.985-24.121-45.558-57.155-51.081-94.442l-0.105-0.861c-4.5-25.709-5.342-52.26-7.592-78.26-0.235-1.758-0.369-3.791-0.369-5.856 0-16.522 8.599-31.036 21.565-39.31l0.188-0.112c17.739-12.302 38.086-22.871 59.741-30.712l1.854-0.587c59.301-18.212 127.466-28.699 198.081-28.699 53.307 0 105.217 5.976 155.099 17.295l-4.675-0.892c36.568 7.549 73.411 16.491 102.387 41.358 12.271 9.737 20.85 23.661 23.579 39.583l0.054 0.382c0 0.082 0 0.178 0 0.275 0 37.265-4.312 73.523-12.463 108.302l0.632-3.199z" />
<glyph unicode="&#xe90d;" glyph-name="zoom" d="M312.692-23.775c-63.263 27.127-117.271 64.136-162.726 109.686l-0.008 0.008c-45.569 45.465-82.581 99.484-108.424 159.448l-1.27 3.312c-25.44 58.512-40.239 126.67-40.239 198.285 0 0.355 0 0.71 0.001 1.064v-0.055c-0.001 0.306-0.001 0.668-0.001 1.031 0 71.608 14.8 139.759 41.508 201.561l-1.268-3.297c27.113 63.276 64.124 117.296 109.684 162.75l0.010 0.010c45.464 45.557 99.472 82.566 159.42 108.422l3.314 1.272c58.538 25.44 126.723 40.239 198.366 40.239 0.331 0 0.662 0 0.993-0.001h-0.051c0.275 0.001 0.601 0.001 0.926 0.001 71.643 0 139.83-14.799 201.669-41.508l-3.301 1.269c63.271-27.115 117.286-64.126 162.737-109.684l0.010-0.010c45.571-45.464 82.582-99.484 108.424-159.448l1.27-3.312c25.44-58.505 40.239-126.656 40.239-198.264 0-0.362 0-0.725-0.001-1.087v0.056c0.001-0.3 0.001-0.655 0.001-1.010 0-71.615-14.8-139.773-41.508-201.582l1.268 3.297c-27.118-63.275-64.129-117.294-109.685-162.751l-0.009-0.009c-45.467-45.557-99.48-82.566-159.432-108.422l-3.315-1.272c-58.521-25.424-126.686-40.213-198.305-40.213-0.348 0-0.696 0-1.044 0.001h0.054c-0.299-0.001-0.652-0.001-1.005-0.001-71.618 0-139.782 14.79-201.604 41.482l3.302-1.269zM35.347 448c0.301-263.134 213.532-476.365 476.637-476.666h0.029c263.131 0.308 476.357 213.534 476.666 476.635v0.030c-0.301 263.134-213.532 476.365-476.637 476.666h-0.029c-263.141-0.293-476.379-213.536-476.666-476.651v-0.028zM569.415 229.464l-50.201 120.418-198.985 0.090-50.24-120.496h-89.317l186.222 446.635h105.668l186.196-446.635zM345.691 411.001l148.087-0.065-74.050 177.627zM732.007 332.628v80.348h-80.296v40.174h80.335v80.335h40.174v-80.335h80.335v-40.174h-80.335v-80.348z" />
<glyph unicode="&#xe90e;" glyph-name="link" d="M312.692-23.775c-63.263 27.127-117.271 64.136-162.726 109.686l-0.008 0.008c-45.569 45.465-82.581 99.484-108.424 159.448l-1.27 3.312c-25.44 58.512-40.239 126.67-40.239 198.285 0 0.355 0 0.71 0.001 1.064v-0.055c-0.001 0.306-0.001 0.668-0.001 1.031 0 71.608 14.8 139.759 41.508 201.561l-1.268-3.297c27.113 63.276 64.124 117.296 109.684 162.75l0.010 0.010c45.464 45.557 99.472 82.566 159.42 108.422l3.314 1.272c58.538 25.44 126.723 40.239 198.366 40.239 0.331 0 0.662 0 0.993-0.001h-0.051c0.275 0.001 0.601 0.001 0.926 0.001 71.643 0 139.83-14.799 201.669-41.508l-3.301 1.269c63.271-27.115 117.286-64.126 162.737-109.684l0.010-0.010c45.571-45.464 82.582-99.484 108.424-159.448l1.27-3.312c25.44-58.505 40.239-126.656 40.239-198.264 0-0.362 0-0.725-0.001-1.087v0.056c0.001-0.3 0.001-0.655 0.001-1.010 0-71.615-14.8-139.773-41.508-201.582l1.268 3.297c-27.118-63.275-64.129-117.294-109.685-162.751l-0.009-0.009c-45.467-45.557-99.48-82.566-159.432-108.422l-3.315-1.272c-58.521-25.424-126.686-40.213-198.305-40.213-0.348 0-0.696 0-1.044 0.001h0.054c-0.299-0.001-0.652-0.001-1.005-0.001-71.618 0-139.782 14.79-201.604 41.482l3.302-1.269zM35.347 448c0.301-263.134 213.532-476.365 476.637-476.666h0.029c263.131 0.308 476.357 213.534 476.666 476.635v0.030c-0.301 263.134-213.532 476.365-476.637 476.666h-0.029c-263.141-0.293-476.379-213.536-476.666-476.651v-0.028zM294.096 221.127c-25.455 25.434-41.201 60.583-41.201 99.409s15.746 73.974 41.2 99.408l86.956 86.995c25.45 25.421 60.593 41.143 99.409 41.143s73.959-15.721 99.41-41.144l-0.001 0.001c9.453-9.453 17.572-20.242 24.048-32.058l0.368-0.734-23.113-23.165c-6.78-6.815-15.993-11.203-26.226-11.752l-0.101-0.004c-4.289 9.9-10.106 18.352-17.252 25.473l-0.002 0.002c-14.541 14.605-34.663 23.643-56.897 23.643-0.087 0-0.174 0-0.261 0h0.014c-0.062 0-0.136 0-0.21 0-22.245 0-42.379-9.037-56.932-23.64l-86.97-86.996c-14.628-14.545-23.681-34.683-23.681-56.935 0-0.083 0-0.165 0-0.247v0.013c0-0.073 0-0.16 0-0.246 0-22.241 9.054-42.367 23.677-56.893l0.004-0.004c14.537-14.628 34.668-23.681 56.914-23.681 0.081 0 0.162 0 0.243 0h-0.012c0.072 0 0.156 0 0.241 0 22.242 0 42.37 9.054 56.899 23.677l44.746 44.746c17.297-6.053 37.238-9.55 57.996-9.55 0.027 0 0.054 0 0.082 0h-0.004c5.949 0 11.86 0.297 17.706 0.839l-78.334-78.322c-25.356-25.432-60.426-41.168-99.171-41.168-0.070 0-0.14 0-0.209 0h0.011c-0.040 0-0.088 0-0.136 0-38.755 0-73.834 15.74-99.191 41.177l-0.003 0.004zM453.114 380.183c-9.443 9.445-17.557 20.22-24.035 32.020l-0.369 0.734 23.139 23.229c6.782 6.784 15.975 11.158 26.183 11.726l0.105 0.005c4.262-9.88 10.064-18.312 17.199-25.407l0.004-0.004c14.547-14.628 34.686-23.681 56.941-23.681 0.081 0 0.161 0 0.242 0h-0.013c0.074 0 0.163 0 0.251 0 22.247 0 42.38 9.054 56.915 23.677l86.972 86.985c14.628 14.537 23.681 34.668 23.681 56.914 0 0.081 0 0.162 0 0.243v-0.012c0 0.068 0 0.149 0 0.23 0 22.246-9.054 42.377-23.677 56.91l-0.004 0.004c-14.539 14.628-34.672 23.681-56.919 23.681-0.088 0-0.176 0-0.264 0h0.014c-0.068 0-0.149 0-0.23 0-22.246 0-42.377-9.054-56.91-23.677l-44.462-44.449c-17.056 5.858-36.708 9.24-57.151 9.24-0.097 0-0.195 0-0.292 0h0.015c-0.124 0-0.271 0-0.418 0-6.471 0-12.861-0.352-19.15-1.037l0.778 0.069 78.451 78.399c25.432 25.429 60.564 41.157 99.37 41.157s73.938-15.728 99.37-41.158v0c25.417-25.438 41.136-60.568 41.136-99.37s-15.719-73.932-41.137-99.371l-86.967-86.993c-25.382-25.449-60.483-41.193-99.261-41.193-0.038 0-0.076 0-0.115 0h0.006c-0.071 0-0.154 0-0.238 0-38.731 0-73.792 15.714-99.156 41.114l-0.002 0.002z" />
<glyph unicode="&#xe90f;" glyph-name="message" d="M312.686-23.761c-63.261 27.135-117.267 64.159-162.71 109.726l-0.011 0.011c-45.578 45.454-82.596 99.465-108.444 159.422l-1.27 3.311c-25.44 58.526-40.24 126.699-40.24 198.329 0 0.344 0 0.689 0.001 1.033v-0.054c-0.001 0.297-0.001 0.649-0.001 1.001 0 71.614 14.8 139.771 41.508 201.58l-1.268-3.297c27.116 63.273 64.135 117.287 109.703 162.734l0.011 0.011c45.455 45.572 99.46 82.588 159.409 108.443l3.312 1.271c58.543 25.44 126.734 40.239 198.381 40.239 0.326 0 0.652 0 0.977-0.001h-0.050c0.271 0.001 0.592 0.001 0.913 0.001 71.649 0 139.841-14.8 201.686-41.509l-3.302 1.269c63.265-27.125 117.275-64.141 162.722-109.703l0.011-0.011c45.578-45.463 82.602-99.475 108.465-159.432l1.272-3.313c25.44-58.518 40.24-126.682 40.24-198.303 0-0.345 0-0.69-0.001-1.036v0.053c0.001-0.291 0.001-0.635 0.001-0.979 0-71.63-14.8-139.803-41.508-201.628l1.268 3.299c-27.136-63.265-64.16-117.274-109.727-162.723l-0.010-0.010c-45.455-45.585-99.465-82.61-159.422-108.467l-3.311-1.271c-58.547-25.44-126.743-40.239-198.396-40.239-0.317 0-0.634 0-0.95 0.001h0.049c-0.272-0.001-0.593-0.001-0.915-0.001-71.652 0-139.847 14.799-201.695 41.508l3.302-1.269zM35.327 448.018c0.288-263.132 213.514-476.366 476.615-476.667h0.029c263.127 0.315 476.347 213.539 476.656 476.637v0.030c-0.328 263.107-213.527 476.309-476.601 476.644h-0.032c-263.129-0.295-476.359-213.517-476.667-476.615v-0.029zM271.681 211.686c-32.909 0.1-59.561 26.744-59.675 59.64v0.011l0.294 358.096c0 0.021 0 0.046 0 0.071 0 32.84 26.558 59.476 59.368 59.604h477.398c32.917-0.1 59.575-26.758 59.675-59.665v-358.106c-0.107-32.91-26.763-59.558-59.666-59.651h-0.009zM271.681 569.782l238.687-149.187 238.711 149.187v59.675l-238.711-149.187-238.687 149.187z" />
<glyph unicode="&#xe910;" glyph-name="print" d="M312.693-23.772c-63.269 27.12-117.281 64.138-162.726 109.705l-0.011 0.011c-45.582 45.462-82.608 99.477-108.469 159.437l-1.271 3.312c-25.44 58.539-40.24 126.726-40.24 198.369 0 0.324 0 0.647 0.001 0.971v-0.050c-0.001 0.273-0.001 0.597-0.001 0.92 0 71.644 14.8 139.831 41.509 201.67l-1.269-3.301c27.131 63.277 64.157 117.296 109.729 162.75l0.011 0.011c45.457 45.576 99.468 82.594 159.425 108.445l3.312 1.271c58.521 25.44 126.69 40.241 198.314 40.241 0.347 0 0.694 0 1.040-0.001h-0.054c0.296 0.001 0.646 0.001 0.996 0.001 71.618 0 139.779-14.8 201.591-41.509l-3.298 1.269c63.276-27.121 117.295-64.14 162.75-109.706l0.011-0.011c45.576-45.469 82.601-99.486 108.467-159.446l1.272-3.314c25.44-58.539 40.24-126.726 40.24-198.369 0-0.324 0-0.647-0.001-0.971v0.050c0.001-0.273 0.001-0.597 0.001-0.92 0-71.644-14.8-139.831-41.509-201.67l1.269 3.301c-27.13-63.273-64.156-117.288-109.729-162.738l-0.011-0.011c-45.461-45.584-99.481-82.603-159.45-108.447l-3.311-1.269c-58.512-25.44-126.669-40.241-198.284-40.241-0.354 0-0.707 0-1.061 0.001h0.055c-0.296-0.001-0.646-0.001-0.996-0.001-71.622 0-139.787 14.8-201.603 41.509l3.298-1.268zM35.339 447.994c0.308-263.132 213.535-476.359 476.637-476.667h0.029c263.134 0.308 476.363 213.533 476.678 476.636v0.031c-0.315 263.133-213.544 476.358-476.648 476.667h-0.030c-263.132-0.308-476.359-213.535-476.667-476.637v-0.029zM341.047 185.129v117.22h-117.232v175.86c0 0.035 0 0.076 0 0.118 0 48.494 39.312 87.806 87.806 87.806 0.033 0 0.066 0 0.099 0h410.283c0.028 0 0.061 0 0.094 0 48.494 0 87.806-39.312 87.806-87.806 0-0.041 0-0.083 0-0.124v0.006-175.836h-117.255v-117.22zM399.663 243.745h234.417v146.516h-234.417zM692.707 478.162c0.073-16.159 13.15-29.24 29.3-29.32h0.008c16.153 0.087 29.223 13.165 29.296 29.313v0.007c-0.073 16.155-13.143 29.233-29.288 29.32h-0.008c-16.167-0.046-29.267-13.113-29.367-29.263v-0.010zM341.047 595.382v117.244h351.601v-117.22z" />
<glyph unicode="&#xe912;" glyph-name="left" horiz-adv-x="621" d="M620.546 44.546l-403.454 403.454 403.454 403.454-108.546 108.546-512-512 512-512z" />
<glyph unicode="&#xe913;" glyph-name="right" horiz-adv-x="621" d="M0 851.454l403.454-403.454-403.454-403.454 108.546-108.546 512 512-512 512z" />
<glyph unicode="&#xe914;" glyph-name="twitter-circle" d="M312.73-23.757c-63.301 27.116-117.341 64.144-162.805 109.728l-0.011 0.011c-45.572 45.457-82.595 99.459-108.466 159.401l-1.272 3.313c-25.422 58.559-40.21 126.763-40.21 198.422 0 0.298 0 0.597 0.001 0.895v-0.047c-0.001 0.281-0.001 0.613-0.001 0.945 0 71.626 14.789 139.798 41.479 201.629l-1.269-3.303c27.144 63.255 64.167 117.257 109.728 162.703l0.011 0.011c45.475 45.595 99.515 82.622 159.504 108.469l3.312 1.27c58.5 25.464 126.649 40.278 198.258 40.278 0.344 0 0.688 0 1.031-0.001h-0.054c0.302 0.001 0.66 0.001 1.018 0.001 71.619 0 139.778-14.814 201.579-41.546l-3.293 1.268c63.277-27.117 117.294-64.144 162.735-109.726l0.013-0.013c45.58-45.445 82.596-99.451 108.436-159.405l1.269-3.309c25.443-58.478 40.244-126.6 40.244-198.178 0-0.384 0-0.768-0.001-1.151v0.059c0.001-0.29 0.001-0.633 0.001-0.976 0-71.645-14.814-139.829-41.547-201.658l1.268 3.295c-27.145-63.25-64.155-117.249-109.696-162.705l-0.008-0.008c-45.454-45.595-99.471-82.622-159.438-108.469l-3.309-1.269c-58.519-25.421-126.682-40.21-198.298-40.21-0.342 0-0.684 0-1.026 0.001h0.054c-0.241 0-0.527-0.001-0.812-0.001-71.666 0-139.872 14.814-201.723 41.547l3.299-1.269zM35.328 447.966c0.33-263.1 213.535-476.293 476.607-476.604h0.030c263.117 0.291 476.342 213.491 476.672 476.572v0.032c-0.291 263.141-213.53 476.38-476.644 476.672h-0.028c-263.135-0.292-476.366-213.535-476.638-476.646v-0.026zM270.848 294.605c7.12-0.904 15.358-1.42 23.717-1.42 46.488 0 89.248 15.96 123.1 42.699l-0.419-0.319c-43.103 0.806-79.403 29.040-92.233 67.943l-0.2 0.7c5.611-1.124 12.062-1.767 18.662-1.767 9.268 0 18.24 1.268 26.752 3.64l-0.699-0.166c-45.559 9.489-79.299 49.309-79.299 97.009 0 0.407 0.002 0.814 0.007 1.22l-0.001-0.062c12.901-7.312 28.243-11.828 44.593-12.352l0.155-0.004c-26.739 18.004-44.095 48.161-44.095 82.373 0 18.302 4.967 35.445 13.627 50.152l-0.252-0.463c48.987-59.915 121.439-99.056 203.124-103.293l0.686-0.028c-1.636 6.737-2.574 14.472-2.574 22.426 0 54.662 44.306 98.975 98.965 98.987h0.001c0.029 0 0.063 0 0.097 0 28.399 0 53.997-11.988 72.012-31.179l0.049-0.053c23.68 4.723 44.724 13.015 63.705 24.393l-0.9-0.5c-7.688-23.27-23.056-42.246-43.044-54.365l-0.442-0.249c21.091 2.579 40.286 8.058 58.092 16.072l-1.26-0.507c-13.543-20.070-29.908-37.032-48.752-50.803l-0.57-0.397c0.233-4.273 0.366-9.274 0.366-14.306 0-154.581-125.313-279.893-279.893-279.893-0.549 0-1.097 0.002-1.645 0.005h0.085c-0.003 0-0.007 0-0.011 0-56.269 0-108.656 16.627-152.513 45.236l1.075-0.658z" />
<glyph unicode="&#xe915;" glyph-name="facebook-circle" d="M312.706-23.79c-63.275 27.127-117.292 64.154-162.741 109.73l-0.012 0.012c-45.581 45.465-82.607 99.48-108.471 159.44l-1.272 3.313c-25.422 58.517-40.211 126.677-40.211 198.291 0 0.347 0 0.693 0.001 1.040v-0.054c-0.001 0.269-0.001 0.587-0.001 0.906 0 71.645 14.802 139.832 41.514 201.672l-1.269-3.3c27.136 63.273 64.162 117.288 109.732 162.743l0.011 0.010c45.457 45.582 99.476 82.599 159.442 108.439l3.311 1.27c58.535 25.465 126.722 40.279 198.369 40.279 0.32 0 0.639 0 0.959-0.001h-0.050c0.301 0.001 0.658 0.001 1.015 0.001 71.631 0 139.805-14.802 201.629-41.514l-3.299 1.269c63.273-27.12 117.29-64.136 162.743-109.698l0.010-0.010c45.575-45.461 82.591-99.479 108.438-159.441l1.27-3.312c25.422-58.491 40.212-126.623 40.212-198.208 0-0.388 0-0.775-0.001-1.163v0.060c0.001-0.304 0.001-0.663 0.001-1.023 0-71.616-14.802-139.776-41.514-201.585l1.268 3.297c-27.113-63.276-64.13-117.293-109.697-162.742l-0.011-0.011c-45.471-45.57-99.485-82.594-159.438-108.469l-3.316-1.274c-58.532-25.422-126.709-40.211-198.339-40.211-0.342 0-0.684 0-1.025 0.001h0.053c-0.277-0.001-0.605-0.001-0.933-0.001-71.647 0-139.837 14.802-201.679 41.514l3.3-1.269zM35.363 447.983c0.31-263.123 213.53-476.343 476.623-476.654h0.030c263.123 0.31 476.343 213.53 476.654 476.623v0.030c-0.31 263.13-213.526 476.358-476.621 476.688h-0.032c-263.135-0.31-476.362-213.549-476.654-476.659v-0.029zM448.663 201.737v243.481h-48.13v86.053h48.13v55.673c-0.191 2.257-0.3 4.884-0.3 7.536 0 52.408 42.485 94.894 94.894 94.894 2.653 0 5.28-0.109 7.877-0.322l-0.341 0.023 74.925-0.307v-83.493h-54.41c-0.361 0.023-0.782 0.036-1.207 0.036-11.311 0-20.481-9.17-20.481-20.481 0-1.048 0.079-2.078 0.231-3.084l-0.014 0.113v-50.587h77.144l-8.841-86.053h-68.269v-243.481z" />
<glyph unicode="&#xe916;" glyph-name="whatsapp" d="M312.74-23.79c-63.275 27.13-117.292 64.156-162.742 109.731l-0.011 0.011c-45.586 45.461-82.613 99.478-108.471 159.441l-1.271 3.312c-25.443 58.53-40.245 126.708-40.245 198.343 0 0.316 0 0.633 0.001 0.949v-0.049c-0.001 0.279-0.001 0.61-0.001 0.94 0 71.633 14.802 139.809 41.514 201.635l-1.269-3.299c27.133 63.274 64.159 117.29 109.731 162.742l0.011 0.011c45.463 45.573 99.48 82.589 159.441 108.438l3.312 1.27c58.552 25.465 126.758 40.279 198.424 40.279 0.3 0 0.6 0 0.899-0.001h-0.046c0.279 0.001 0.609 0.001 0.94 0.001 71.645 0 139.832-14.802 201.672-41.514l-3.3 1.269c63.272-27.125 117.288-64.14 162.744-109.699l0.009-0.009c45.581-45.465 82.607-99.48 108.471-159.44l1.272-3.313c25.422-58.506 40.211-126.654 40.211-198.257 0-0.371 0-0.742-0.001-1.113v0.058c0.001-0.287 0.001-0.627 0.001-0.967 0-71.636-14.802-139.814-41.514-201.643l1.269 3.3c-27.131-63.275-64.158-117.291-109.731-162.742l-0.011-0.011c-45.463-45.584-99.479-82.61-159.441-108.471l-3.312-1.271c-58.515-25.422-126.672-40.211-198.284-40.211-0.349 0-0.698 0-1.047 0.001h0.054c-0.253 0-0.553-0.001-0.853-0.001-71.666 0-139.872 14.815-201.722 41.548l3.298-1.269zM35.363 447.949c0.33-263.109 213.542-476.309 476.623-476.62h0.030c263.126 0.291 476.358 213.498 476.688 476.587v0.032c-0.272 263.165-213.525 476.43-476.659 476.722h-0.028c-263.147-0.31-476.382-213.569-476.654-476.695v-0.027zM525.534 233.789c-138.006 53.932-225.083 194.362-231.875 203.339-30.545 38.251-50.661 86.052-55.361 138.298l-0.073 1.005c-0.014 0.761-0.022 1.658-0.022 2.557 0 43.249 18.23 82.239 47.425 109.707l0.077 0.072c8.949 10.048 21.799 16.455 36.152 16.827l0.065 0.001c9.046 0 18.125-1.126 26.010-1.126s19.218 4.472 30.516-22.46 38.47-93.255 41.849-99.98c2.269-3.649 3.614-8.077 3.614-12.82 0-3.919-0.919-7.623-2.552-10.91l0.064 0.143c-3.68-8.592-8.262-15.998-13.771-22.605l0.117 0.145c-6.827-7.851-14.234-17.545-20.481-23.587-6.827-6.827-13.859-13.995-5.939-27.308 21.272-35.742 46.313-66.433 75.213-92.99l0.293-0.265c31.029-27.449 67.195-50.001 106.735-65.946l2.495-0.889c13.654-6.827 21.505-5.632 29.424 3.413s33.964 39.289 43.009 52.772 18.091 11.23 30.721 6.827 79.158-37.070 92.743-43.795 22.597-10.24 26.010-15.702c1.010-5.66 1.588-12.177 1.588-18.827 0-16.371-3.5-31.925-9.793-45.955l0.285 0.712c-19.99-32.802-52.525-56.276-90.778-63.858l-0.873-0.144c-8.6-2.070-18.932-3.725-29.48-4.622l-0.797-0.055c-49.175 5.908-93.935 19.342-135.010 39.199l2.534-1.105z" />
<glyph unicode="&#xe917;" glyph-name="loading" d="M1016.125 454.519c0-0.029 0-0.062 0-0.096 0-61.888-11.167-121.167-31.597-175.933l1.137 3.478c-13.029-35.466-28.053-65.906-45.838-94.446l1.244 2.142c-37.565-60.361-85.516-110.611-141.841-149.625l-1.664-1.090c-33.72-23.525-72.398-43.706-113.585-58.657l-3.497-1.11q-18.749-6.721-37.989-11.913c-15.774-4.516-35.567-8.754-55.752-11.798l-2.79-0.346c-21.876-3.351-47.113-5.264-72.798-5.264-0.149 0-0.299 0-0.448 0h0.023c-61.74 0.122-120.826 11.327-175.426 31.73l3.48-1.14s-0.187 0.072-0.375 0.115c-30.547 11.218-56.5 23.537-81.134 37.874l2.416-1.298c-66.098 38.371-120.893 89.086-162.782 149.436l-1.087 1.655c-8.452 12.403-16.528 25.153-23.855 38.249-13.487 23.337-26.060 50.568-36.16 78.971l-1.094 3.526c-1.644 5.005-3.49 10.096-4.947 15.144-5.029 15.014-9.978 34.005-13.794 53.403l-0.514 3.133c-5.605 28.142-8.812 60.495-8.812 93.597 0 0.154 0 0.308 0 0.462v-0.024c0 0.192 0 0.42 0 0.648 0 30.225 2.734 59.812 7.968 88.527l-0.454-3c0.033 0.824 0.163 1.604 0.378 2.348l-0.017-0.069v0.663l4.774-0.808 0.736-0.115-5.322 1.038v0.144c0.361 2.61 0.923 5.235 1.442 7.831 0.361 2.308 0.909 4.63 1.442 6.937 0 0.418 0.187 0.88 0.187 1.298 2.019 9.303 4.211 18.591 6.793 27.85q5.509 19.716 12.663 39.229v0.317c42.963 115.884 123.81 209.302 227.213 267.269l2.538 1.307c26.875 15.271 58.095 28.967 90.772 39.404l3.551 0.979c14.495 4.543 29.177 8.437 44.219 11.653 31.786 7.189 68.29 11.308 105.757 11.308 0.24 0 0.479 0 0.719-0.001h-0.037c61.734-0.095 120.824-11.292 175.42-31.7l-3.475 1.138c0.187 0 0.187-0.072 0.375-0.115v0s0.187 0 0.187-0.087h0.173s0.187-0.072 0.187-0.115v0c0.1-0.029 0.222-0.054 0.347-0.071l0.014-0.002s0.187 0 0.187-0.087h0.187s0 0 0.187-0.072v0c0.144-0.022 0.27-0.052 0.392-0.091l-0.017 0.005s0.187 0 0.187-0.072v0c0.187 0 0.187 0 0.375-0.087v0s0.187 0 0.187-0.087 0.173 0 0.173 0 0.361-0.13 0.548-0.202v0s0.187 0 0.187-0.087v0c0.14-0.023 0.261-0.054 0.379-0.092l-0.018 0.005c0.099-0.033 0.22-0.063 0.345-0.084l0.016-0.002s0.187-0.072 0.187-0.087 0 0 0.187 0 0 0 0.187-0.072v0c0.187 0 0.187-0.072 0.375-0.115v0s0.187 0 0.187-0.087v0c0.103-0.042 0.228-0.082 0.357-0.112l0.018-0.004s0.187 0 0.187-0.087 0 0 0.173 0 0.375-0.144 0.548-0.202v0s0.187-0.072 0.187-0.115v0c0.187 0 0.187-0.072 0.361-0.115v0c0.187 0 0.187 0 0.187-0.087h0.187s0.187-0.072 0.187-0.115v0c0.187 0 0.187-0.072 0.375-0.087v0s0.187-0.072 0.187-0.115h0.173s0.187-0.072 0.187-0.101v0c0.187 0 0.187-0.072 0.375-0.115v0s0.187 0 0.187-0.087v0l0.548-0.216s0.187 0 0.187 0 0.375-0.144 0.548-0.202v0s0.187-0.072 0.187-0.115v0c0.187 0 0.187-0.072 0.375-0.115v0c0.187 0 0.187 0 0.187-0.087s0.187 0 0.187 0 0.187-0.072 0.187-0.115v0c0.173 0 0.173-0.072 0.361-0.115v0c0.187-0.087 0.361-0.144 0.548-0.231v0l1.096-0.433h0.187s0 0 0.187-0.115v0c0.187 0 0.187-0.072 0.375-0.115v0s0.187 0 0.187-0.087v0c0.187 0 0.187-0.072 0.375-0.115v0s0.173-0.072 0.173-0.115h0.187s0.187-0.072 0.187-0.115v0c0.187 0 0.187-0.072 0.361-0.115v0l1.096-0.433c0.187-0.087 0.375-0.173 0.548-0.245v0c0.187 0 0.187-0.072 0.375-0.13v0s0.187-0.072 0.187-0.115h0.187s0-0.072 0.173-0.115v0c0.187 0 0.187-0.072 0.361-0.115v0s0.187-0.072 0.187-0.115v0c0.187-0.072 0.361-0.144 0.548-0.245h0.187c0.187-0.087 0.375-0.144 0.548-0.231v0c0.187-0.087 0.375-0.173 0.548-0.245v0s0.187-0.072 0.187-0.13v0c0.187 0 0.187-0.072 0.375-0.115v0c0.187 0 0.187-0.072 0.375-0.115v0c0.187-0.087 0.361-0.159 0.548-0.245v0l0.548-0.216c0.187-0.072 0.375-0.144 0.548-0.245v0c0.187-0.087 0.375-0.159 0.548-0.231v0c0.173-0.072 0.361-0.144 0.548-0.231h0.187s0.187-0.072 0.187-0.13v0c0.187-0.072 0.375-0.144 0.548-0.231v0c0.187-0.087 0.375-0.173 0.548-0.245v0c0.203-0.089 0.448-0.173 0.7-0.238l0.035-0.008c0.187-0.087 0.375-0.159 0.548-0.26v0l0.548-0.245s0.187-0.087 0.187-0.13v0c0.28-0.066 0.525-0.155 0.756-0.269l-0.020 0.009 0.548-0.245c0.187-0.072 0.361-0.144 0.548-0.245v0l1.096-0.519c0.375-0.13 0.548-0.26 0.909-0.389v0c0.187-0.072 0.375-0.159 0.548-0.231v0c0.187-0.072 0.375-0.159 0.548-0.245v0c0.173-0.072 0.361-0.159 0.548-0.245v0l0.548-0.231c0.353-0.107 0.659-0.239 0.946-0.401l-0.023 0.012c0.187-0.072 0.375-0.159 0.548-0.231v0c0.187-0.072 0.375-0.173 0.548-0.245v0l0.548-0.26h0.187l0.548-0.26c0.187-0.087 0.361-0.187 0.548-0.26v0s0.187-0.087 0.187-0.13v0l0.548-0.274c0.173-0.087 0.361-0.173 0.548-0.26h0.187l0.548-0.26c0.187-0.072 0.375-0.159 0.548-0.26v0c0.361-0.216 0.909-0.447 1.284-0.663v0l0.548-0.26c0.187 0 0.187 0 0.187 0s0.361-0.173 0.548-0.26v0c0.187-0.087 0.375-0.187 0.548-0.26v0c0.187-0.072 0.375-0.159 0.548-0.26v0c0.361-0.216 0.909-0.462 1.284-0.678v0c0.286-0.076 0.531-0.164 0.765-0.272l-0.029 0.012c0.187-0.087 0.375-0.159 0.548-0.26v0c0.361-0.216 0.923-0.447 1.284-0.663v0l1.644-0.822c0.814-0.341 1.473-0.665 2.111-1.021l-0.107 0.055 1.644-0.822c0.361-0.144 0.548-0.274 0.909-0.418v0l0.548-0.274c0.187-0.087 0.375-0.173 0.548-0.26v0l0.548-0.274c0.187-0.115 0.361-0.187 0.548-0.274v0c0.281-0.103 0.525-0.239 0.742-0.408l-0.006 0.004h0.187c0.187-0.087 0.187-0.187 0.375-0.274h0.187l1.096-0.548c0.187-0.115 0.375-0.187 0.548-0.274v0s0.187-0.087 0.187-0.13v0c0.187 0 0.187-0.115 0.361-0.144v0s0.187-0.087 0.187-0.144v0l1.096-0.548c0.187-0.087 0.375-0.159 0.548-0.274v0c0.187-0.115 0.375-0.187 0.548-0.288v0l0.548-0.274c0.187 0 0.187-0.087 0.375-0.13v0s0.173-0.087 0.173-0.13v0c0.187 0 0.187-0.087 0.375-0.144v0l0.548-0.274c0.187-0.087 0.361-0.159 0.548-0.274v0l0.548-0.274c0.173-0.115 0.361-0.202 0.548-0.288v0s0-0.087 0.187-0.144v0c0.187 0 0.187-0.087 0.375-0.144v0s0-0.087 0.187-0.13v0l0.548-0.274c0.187-0.115 0.375-0.187 0.548-0.288v0l0.548-0.274c0.187 0 0.187-0.087 0.187-0.13v0c0.187 0 0.187-0.087 0.361-0.144v0s0.187-0.072 0.187-0.13v0c0.187 0 0.187-0.115 0.375-0.144v0s0.187-0.087 0.187-0.13v0l1.644-0.822c0.187 0 0.187-0.087 0.375-0.13v0s0.187-0.087 0.187-0.13v0c0.096-0.043 0.215-0.087 0.338-0.124l0.023-0.006s0.187-0.087 0.187-0.144v0c0.173 0 0.173-0.072 0.361-0.115v0s0.187-0.087 0.187-0.13v0c0.187 0 0.187-0.087 0.187-0.13s0.187 0 0.187 0 0.375-0.187 0.375-0.274 0.187 0 0.187 0 0.187-0.187 0.375-0.274h0.187c0-0.087 0.173-0.202 0.361-0.288h0.187s0-0.072 0.187-0.13v0s0.187-0.087 0.187-0.144v0c0.187 0 0.187-0.087 0.375-0.13v0s0.187-0.087 0.187-0.144v0c0.187 0 0.187-0.087 0.375-0.144v0l1.096-0.548s0.187-0.087 0.187-0.144v0c0.187 0 0.187-0.087 0.187-0.144s0.173 0 0.173 0 0.187-0.087 0.187-0.13v0c0.187 0 0.187-0.087 0.187-0.144s0.187 0 0.187 0 0-0.087 0.187-0.13v0s0.187-0.087 0.187-0.144v0c0.101-0.044 0.226-0.089 0.354-0.125l0.021-0.005 1.096-0.548s0.187-0.087 0.187-0.13v0c0.187 0 0.187-0.087 0.187-0.144s0.187 0 0.187 0 0.187-0.087 0.187-0.13v0c0.187 0 0.187-0.087 0.187-0.144s0.187 0 0.187 0 0-0.072 0.187-0.115v0s0.173-0.087 0.173-0.13 0 0 0.187 0 0-0.087 0.187-0.13v0s0.187-0.087 0.187-0.13v0c0.187 0 0.187-0.087 0.375-0.13v0l0.548-0.274s0.187-0.087 0.187-0.13v0c0.173 0 0.173-0.087 0.173-0.144s0.187 0 0.187 0 0.187-0.087 0.187-0.13v0c0.187 0 0.187-0.087 0.187-0.144s0 0 0.187 0 0-0.087 0.187-0.13v0s0.187-0.087 0.187-0.144v0c0.187 0 0.187-0.087 0.375-0.13v0s0.187-0.115 0.187-0.144v0c0.187 0 0.187-0.087 0.187-0.13s0.187 0 0.187 0 0.361-0.187 0.361-0.274 0.173 0 0.173 0 0.187-0.187 0.361-0.288h0.187s0-0.087 0.173-0.144v0s0.187-0.087 0.187-0.144v0c0.187 0 0.187-0.072 0.375-0.115v0s0.187-0.087 0.187-0.144v0c0.187 0 0.187-0.087 0.187-0.13s0.187 0 0.187 0 0.187-0.115 0.187-0.144v0c0.187 0 0.187-0.087 0.187-0.13s0.187 0 0.187 0 0.187-0.087 0.187-0.144v0s0.187-0.087 0.187-0.13 0 0 0.187 0 0-0.087 0.173-0.13v0s0.187-0.087 0.187-0.144v0c0.187 0 0.187-0.072 0.187-0.115s0.187 0 0.187 0 0.187-0.087 0.187-0.13v0c0.187 0 0.187-0.072 0.187-0.13h0.187s0-0.115 0.187-0.144v0s0.187-0.072 0.187-0.115v0c0.173 0 0.173-0.087 0.361-0.144v0s0.187-0.072 0.187-0.13v0c0.187 0 0.187-0.087 0.361-0.144v0s0.187-0.087 0.187-0.13v0c0.187 0 0.187-0.087 0.187-0.144h0.187s0-0.115 0.187-0.144v0s0.173-0.087 0.173-0.13v0c0.187 0 0.187-0.087 0.375-0.144v0s0.187-0.072 0.187-0.115v0c0.187 0 0.187-0.087 0.361-0.144v0s0.187-0.087 0.187-0.13v0c0.187 0 0.187-0.087 0.187-0.13s0.187 0 0.187 0 0-0.072 0.187-0.115v0s0.187-0.087 0.187-0.13v0c0.187 0 0.187-0.087 0.375-0.13v0s0.187-0.087 0.187-0.13v0c0.173 0 0.173-0.115 0.173-0.144s0.187 0 0.187 0 0-0.087 0.187-0.13v0s0.187-0.115 0.187-0.144 0.173 0 0.173 0 0-0.072 0.187-0.115v0s0.187-0.087 0.187-0.13v0c0.187 0 0.187-0.072 0.187-0.115s0.187 0 0.187 0 0.187-0.115 0.187-0.144v0c0.187 0 0.187-0.072 0.187-0.115s0.187 0 0.187 0 0-0.087 0.187-0.13v0s0.187-0.087 0.187-0.13 0 0 0.187 0 0-0.072 0.187-0.13v0s0.187-0.087 0.187-0.13v0c0.173 0 0.173 0 0.173-0.115s0.187 0 0.187 0 0-0.087 0.187-0.13v0c0.187 0 0.187-0.072 0.187-0.115v0c0.187 0 0.187-0.087 0.361-0.13v0s0.187-0.072 0.187-0.115v0c0.187 0 0.187-0.087 0.361-0.144v0s0-0.072 0.187-0.115v0c0.173 0 0.173-0.087 0.173-0.144s0.187 0 0.187 0 0-0.072 0.187-0.115v0s0.187-0.072 0.187-0.115v0c0.187 0 0.187-0.087 0.187-0.13s0.187 0 0.187 0 0-0.072 0.187-0.115v0c0.187 0 0.187-0.087 0.187-0.13s0.173 0 0.173 0 0-0.072 0.187-0.115v0s0.187-0.087 0.187-0.144 0 0 0.187 0v-0.087c0.187 0 0.187 0 0.187 0s0.187-0.087 0.187-0.13v0c0.187 0 0.187-0.072 0.187-0.087s0 0 0.187 0 0-0.087 0.187-0.144v0s0.187 0 0.187-0.115v0c0.187 0 0.187-0.072 0.187-0.115s0.187 0 0.187 0 0-0.072 0.187-0.115v0c0.187 0 0.187-0.072 0.187-0.115v0c0.1-0.047 0.219-0.091 0.343-0.126l0.017-0.004v-0.072s0.187 0 0.187-0.087v0c0.187 0 0.187-0.087 0.187-0.13s0.173 0 0.173 0 0-0.072 0.187-0.087v0c0.187 0 0.187-0.087 0.187-0.144s0.187 0 0.187 0v-0.087c0.187 0 0.187 0 0.187 0s0.187-0.087 0.187-0.13 0 0 0.187 0v-5.38s0.187 0 0.187-0.072 0 0 0.187-0.087v-0.087c0.187 0 0.187 0 0.187-0.087s0 0 0.187 0v-0.087c0.187 0 0.187 0 0.187-0.087s0.187 0 0.187-0.087v-0.072c0.173 0 0.173 0 0.173-0.087s0 0 0.187 0 0-0.087 0.187-0.13v-0.072s0.187 0 0.187-0.072v-0.072c0.187 0 0.187-0.087 0.375-0.13v0s0 0 0.187-0.087v-0.072c0.187 0 0.187-0.072 0.187-0.13s0.187 0 0.187 0 0 0 0.187-0.087v0s0.187-0.072 0.187-0.13v0c0.173 0 0.173-0.072 0.173-0.115s0.187 0 0.187 0 0-0.072 0.187-0.115v0c0.187 0 0.187-0.072 0.187-0.115s0 0 0.187-0.072v-0.087c0.187 0 0.187 0 0.187 0s0.187-0.087 0.187-0.13v-0.519c0.173 0 0.173 0 0.173-0.087s0 0 0.187 0 0-0.087 0.187-0.13v-0.072s0.187 0 0.187-0.087v0c0.187 0 0.187-0.087 0.187-0.13s0.187 0 0.187-0.072 0 0 0.187-0.072v-0.072c0.187 0 0.187-0.072 0.187-0.115s0.187 0 0.187-0.072v-0.087c0.187 0 0.187 0 0.187-0.072s0.187 0 0.187-0.087 0-0.072 0.187-0.115v-0.072s0.187 0 0.187-0.072v-0.087c0.187 0 0.187 0 0.187-0.087s0.173 0 0.173-0.087 0 0 0.187-0.072v-0.087s0.187 0 0.187-0.072 0-0.072 0.187-0.115v-0.087c0.173 0 0.173 0 0.173 0s0 0 0.187-0.087v-0.087c0.187 0 0.187-0.072 0.187-0.115s0.187 0 0.187 0v-0.087c0.187 0 0.187 0 0.187-0.072s0.187-0.087 0.187-0.13 0 0 0.187-0.072v-0.072s0.187 0 0.187-0.072 0-0.087 0.187-0.13v-0.072s0.187 0 0.187-0.072v-0.072c0.187 0 0.187-0.087 0.187-0.13s0.187 0 0.187-0.072 0 0 0.187-0.087v-0.072s0.173 0 0.173-0.072 0-0.072 0.187-0.13v-0.072c0.187 0 0.187 0 0.187-0.072s0 0 0.187-0.072v-0.087c0.187 0 0.187-0.072 0.187-0.115s0.187 0 0.187-0.072v-0.087c0.187 0 0.187 0 0.187 0s0.187-0.087 0.187-0.144v0c0.187 0 0.187 0 0.187-0.087s0 0 0.187-0.072 0-0.087 0.187-0.13v-0.072s0.187 0 0.187-0.072v-0.072c0.173 0 0.173-0.087 0.361-0.144v0s0 0 0.187-0.087v0s0.187 0 0.187-0.087 0-0.072 0.187-0.13v-0.072c0.187 0 0.187 0 0.187-0.072s0 0 0.173-0.087v-0.115c0.187 0 0.187 0 0.187-0.087s0 0 0.187 0v-0.087s0.187 0 0.187-0.087 0.187-0.072 0.187-0.115v-0.072c0.187 0 0.187 0 0.187-0.087s0 0 0.187 0 0-0.087 0.187-0.144v0s0.187-0.072 0.187-0.087v-0.072c0.187 0 0.187-0.087 0.187-0.144s0.187 0 0.187 0 0 0 0.187-0.087v0c0-0.072 0.187-0.13 0.187-0.202h0.187v-0.087s0.173 0 0.173 0 0.187-0.216 0.375-0.332v0c0.187 0 0.187-0.072 0.187-0.115v0c0.187-0.072 0.187-0.13 0.361-0.187v0s0.187-0.072 0.187-0.087v0c0.187 0 0.187-0.115 0.375-0.173v0s0 0 0.187-0.087v0s0.187-0.115 0.187-0.187 0 0 0.187 0v-0.087s0.187 0 0.187 0 0.187-0.202 0.375-0.317v0l0.548-0.332s0.187-0.072 0.187-0.115v0c0.187-0.072 0.187-0.13 0.187-0.202s0.187 0 0.187 0 0-0.072 0.187-0.115v0s0.187-0.13 0.187-0.202h0.187v-0.115s0 0 0.187 0 0.187-0.13 0.187-0.202v0c0.187 0 0.187-0.072 0.187-0.115v0l1.096-0.663c0.187-0.115 0.187-0.216 0.375-0.332v0c0.173 0 0.173-0.072 0.173-0.115v0c0.187-0.072 0.187-0.144 0.375-0.216v0s0.187-0.072 0.187-0.115v0c0.187-0.072 0.187-0.144 0.375-0.216v0s0-0.072 0.187-0.115v0c0.187-0.13 0.375-0.245 0.375-0.346s0.187 0 0.187 0 0.187-0.245 0.375-0.346v0l0.548-0.332s0.187 0 0.187-0.087v0c0-0.072 0.187-0.144 0.375-0.216v0s0-0.072 0.187-0.115v0c0.187-0.115 0.187-0.245 0.361-0.346v0c0.187-0.115 0.361-0.216 0.548-0.346v0c0.187-0.13 0.361-0.231 0.548-0.346v0c0.187-0.115 0.187-0.216 0.361-0.346s0 0 0.187 0l0.548-0.49c0.187-0.115 0.361-0.231 0.548-0.361v0c0.187-0.115 0.361-0.245 0.361-0.346s0 0 0.187 0 0.187-0.245 0.375-0.346v0l0.548-0.361c0.187-0.13 0.361-0.231 0.361-0.361h0.187c0.548-0.418 0.909-0.837 1.442-1.269v0l0.548-0.389 1.096-0.88c0.187-0.115 0.375-0.231 0.548-0.361v0c0.187-0.13 0.375-0.26 0.548-0.361v0c0.173-0.13 0.173-0.26 0.361-0.361v0c0.958-0.696 1.795-1.377 2.593-2.1l-0.026 0.023 2.755-2.091c11.927-9.822 23.307-20.192 34.326-30.951 3.4-3.306 5.509-7.924 5.509-13.034 0-0.012 0-0.023 0-0.035v0.002c-0.032-5.022-2.057-9.565-5.324-12.882l0.002 0.002c-3.32-3.373-7.935-5.464-13.038-5.464-5.010 0-9.549 2.015-12.852 5.278l0.002-0.002c-46.5 45.904-102.7 82.104-165.237 105.237l-3.219 1.042c-47.411 17.881-102.214 28.27-159.433 28.355h-0.037c-0.137 0-0.301 0-0.464 0-49.783 0-97.747-7.785-142.743-22.203l3.308 0.916c-48.114-15.273-89.976-36.128-127.813-62.376l1.558 1.023c-79.311-54.954-139.861-131.978-173.279-222.172l-1.046-3.224c-4.226-11.927-8.077-24.187-11.538-36.402-2.38-8.567-4.399-17.307-6.231-25.86-0.122-0.233-0.194-0.51-0.194-0.803 0-0.052 0.002-0.104 0.007-0.156v0.007l-0.187-0.274c-0.375-2.135-0.923-4.327-1.284-6.404-0.548-2.481-0.923-4.904-1.298-7.211l-0.187-0.144v-0.851l-0.187-0.49c0-0.462-0.173-0.923-0.173-1.442v-0.13c-4.409-24.001-6.947-51.636-6.98-79.857v-0.029c0-0.068 0-0.148 0-0.228 0-49.773 7.854-97.711 22.392-142.644l-0.916 3.276c15.208-48.039 36.047-89.839 62.306-127.587l-1.010 1.534c54.898-79.29 131.928-139.789 222.135-173.070l3.217-1.039c47.411-17.891 102.214-28.286 159.434-28.369h0.036c0.13 0 0.285 0 0.439 0 49.707 0 97.595 7.785 142.512 22.202l-3.298-0.914c48.115 15.238 89.981 36.096 127.801 62.37l-1.546-1.016c79.36 54.903 139.927 131.945 173.283 222.176l1.042 3.219c17.868 47.584 28.229 102.578 28.268 159.986v0.017c0.016 10.125 8.22 18.329 18.344 18.345h0.002c0.030 0 0.066 0 0.101 0 10.076 0 18.245-8.168 18.245-18.245 0-0.036 0-0.071 0-0.107v0.005zM19.326 542.915l-4.774 0.808c0.187 0 0.187 0 0.187 0.087v0z" />
<glyph unicode="&#xe986;" glyph-name="search" d="M992.262 88.604l-242.552 206.294c-25.074 22.566-51.89 32.926-73.552 31.926 57.256 67.068 91.842 154.078 91.842 249.176 0 212.078-171.922 384-384 384-212.076 0-384-171.922-384-384s171.922-384 384-384c95.098 0 182.108 34.586 249.176 91.844-1-21.662 9.36-48.478 31.926-73.552l206.294-242.552c35.322-39.246 93.022-42.554 128.22-7.356s31.892 92.898-7.354 128.22zM384 320c-141.384 0-256 114.616-256 256s114.616 256 256 256 256-114.616 256-256-114.614-256-256-256z" />
<glyph unicode="&#xea0f;" glyph-name="close" d="M1014.662 137.34c-0.004 0.004-0.008 0.008-0.012 0.010l-310.644 310.65 310.644 310.65c0.004 0.004 0.008 0.006 0.012 0.010 3.344 3.346 5.762 7.254 7.312 11.416 4.246 11.376 1.824 24.682-7.324 33.83l-146.746 146.746c-9.148 9.146-22.45 11.566-33.828 7.32-4.16-1.55-8.070-3.968-11.418-7.31 0-0.004-0.004-0.006-0.008-0.010l-310.648-310.652-310.648 310.65c-0.004 0.004-0.006 0.006-0.010 0.010-3.346 3.342-7.254 5.76-11.414 7.31-11.38 4.248-24.682 1.826-33.83-7.32l-146.748-146.748c-9.148-9.148-11.568-22.452-7.322-33.828 1.552-4.16 3.97-8.072 7.312-11.416 0.004-0.002 0.006-0.006 0.010-0.010l310.65-310.648-310.65-310.652c-0.002-0.004-0.006-0.006-0.008-0.010-3.342-3.346-5.76-7.254-7.314-11.414-4.248-11.376-1.826-24.682 7.322-33.83l146.748-146.746c9.15-9.148 22.452-11.568 33.83-7.322 4.16 1.552 8.070 3.97 11.416 7.312 0.002 0.004 0.006 0.006 0.010 0.010l310.648 310.65 310.648-310.65c0.004-0.002 0.008-0.006 0.012-0.008 3.348-3.344 7.254-5.762 11.414-7.314 11.378-4.246 24.684-1.826 33.828 7.322l146.746 146.748c9.148 9.148 11.57 22.454 7.324 33.83-1.552 4.16-3.97 8.068-7.314 11.414z" />
<glyph unicode="&#xea82;" glyph-name="share" d="M512-63.966c-0.287-0.001-0.627-0.001-0.967-0.001-71.633 0-139.809 14.801-201.637 41.513l3.299-1.269c-63.27 27.137-117.284 64.161-162.737 109.728l-0.010 0.010c-45.564 45.466-82.578 99.479-108.433 159.434l-1.272 3.314c-25.443 58.528-40.244 126.704-40.244 198.337 0 0.328 0 0.656 0.001 0.984v-0.051c-0.001 0.287-0.001 0.627-0.001 0.967 0 71.633 14.801 139.809 41.513 201.637l-1.269-3.299c27.127 63.268 64.14 117.282 109.695 162.738l0.009 0.009c45.464 45.577 99.478 82.602 159.434 108.467l3.314 1.272c58.515 25.421 126.673 40.21 198.284 40.21 0.359 0 0.717 0 1.075-0.001h-0.055c0.279 0.001 0.609 0.001 0.94 0.001 71.642 0 139.828-14.801 201.665-41.513l-3.3 1.269c63.273-27.128 117.288-64.153 162.736-109.727l0.012-0.012c45.577-45.465 82.601-99.478 108.467-159.434l1.272-3.313c25.421-58.506 40.21-126.655 40.21-198.257 0-0.357 0-0.713-0.001-1.070v0.056c0.001-0.287 0.001-0.627 0.001-0.967 0-71.633-14.801-139.809-41.513-201.637l1.269 3.299c-27.129-63.272-64.155-117.287-109.727-162.736l-0.012-0.012c-45.46-45.584-99.475-82.609-159.436-108.468l-3.312-1.271c-58.506-25.421-126.655-40.21-198.257-40.21-0.357 0-0.713 0-1.070 0.001h0.056zM512 924.706c-263.126-0.31-476.346-213.542-476.638-476.643v-0.029c0.291-263.129 213.511-476.361 476.608-476.672h0.030c263.133 0.31 476.361 213.538 476.672 476.642v0.030c-0.31 263.133-213.538 476.361-476.642 476.672h-0.030zM676.489 342.426c-20.369-0.096-38.883-7.955-52.755-20.767l0.053 0.048-191.761 111.616c1.41 5.613 2.286 12.091 2.422 18.75l0.001 0.091c-0.138 6.751-1.013 13.229-2.55 19.446l0.126-0.605 189.611 110.524c14.31-13.279 33.544-21.427 54.681-21.427 44.451 0 80.486 36.035 80.486 80.486s-36.035 80.486-80.486 80.486c-44.451 0-80.486-36.035-80.486-80.486 0-0.051 0-0.102 0-0.153v0.008c0.138-6.751 1.013-13.229 2.55-19.446l-0.126 0.605-189.645-110.558c-14.389 13.501-33.804 21.794-55.156 21.794-44.565 0-80.691-36.127-80.691-80.691s36.127-80.691 80.691-80.691c21.352 0 40.767 8.293 55.2 21.834l-0.043-0.040 191.488-111.889c-1.329-5.236-2.111-11.256-2.15-17.451v-0.025c0-43.358 35.149-78.507 78.507-78.507s78.507 35.149 78.507 78.507c0 43.358-35.149 78.507-78.507 78.507v0z" />
<glyph unicode="&#xea90;" glyph-name="facebook" d="M608 768h160v192h-160c-123.514 0-224-100.486-224-224v-96h-128v-192h128v-512h192v512h160l32 192h-192v96c0 17.346 14.654 32 32 32z" />
<glyph unicode="&#xea96;" glyph-name="twitter" d="M1024 733.6c-37.6-16.8-78.2-28-120.6-33 43.4 26 76.6 67.2 92.4 116.2-40.6-24-85.6-41.6-133.4-51-38.4 40.8-93 66.2-153.4 66.2-116 0-210-94-210-210 0-16.4 1.8-32.4 5.4-47.8-174.6 8.8-329.4 92.4-433 219.6-18-31-28.4-67.2-28.4-105.6 0-72.8 37-137.2 93.4-174.8-34.4 1-66.8 10.6-95.2 26.2 0-0.8 0-1.8 0-2.6 0-101.8 72.4-186.8 168.6-206-17.6-4.8-36.2-7.4-55.4-7.4-13.6 0-26.6 1.4-39.6 3.8 26.8-83.4 104.4-144.2 196.2-146-72-56.4-162.4-90-261-90-17 0-33.6 1-50.2 3 93.2-59.8 203.6-94.4 322.2-94.4 386.4 0 597.8 320.2 597.8 597.8 0 9.2-0.2 18.2-0.6 27.2 41 29.4 76.6 66.4 104.8 108.6z" />
<glyph unicode="&#xeaca;" glyph-name="linkedin" d="M384 576h177.106v-90.782h2.532c24.64 44.194 84.958 90.782 174.842 90.782 186.946 0 221.52-116.376 221.52-267.734v-308.266h-184.61v273.278c0 65.184-1.334 149.026-96.028 149.026-96.148 0-110.82-70.986-110.82-144.292v-278.012h-184.542v576zM64 576h192v-576h-192v576zM256 736c0-53.019-42.981-96-96-96s-96 42.981-96 96c0 53.019 42.981 96 96 96s96-42.981 96-96z" />
</font>
</defs>
</svg>
