<svg xmlns="http://www.w3.org/2000/svg" width="102.667" height="22"><g id="Grupo_506" data-name="Grupo 506" transform="translate(1)" fill="#fff"><path id="Trazado_142" data-name="Trazado 142" d="M18.495 12.8h-6.706a2.944 2.944 0 0 1 .918.991c.15.266.237.423.256.472a2.212 2.212 0 0 1 .125.816v4.2l-.206.073h-1.63a4.5 4.5 0 0 1-3.94-2.364 10.1 10.1 0 0 1-1.4-5.483A7.909 7.909 0 0 1 6.9 7.314a5.533 5.533 0 0 1 4.545-2.484h.331a7.344 7.344 0 0 1 2.086.363 5.977 5.977 0 0 1 1.474.6l1.193.7V2.327a16.364 16.364 0 0 0-4.889-.617 12.206 12.206 0 0 0-8.168 2.962A9.335 9.335 0 0 0 0 12.042a9.464 9.464 0 0 0 3.584 7.75 12.477 12.477 0 0 0 8.13 2.678 26.3 26.3 0 0 0 3.921-.345 19.253 19.253 0 0 0 2.86-.568z" transform="translate(-1 -.676)"/><path id="Trazado_143" data-name="Trazado 143" d="M109.236 4.788c.156.133-.445.3-.32.508a6.394 6.394 0 0 1 .618 1.294 2.242 2.242 0 0 1 .094.671v7.817l-7.949-10.29h-5.395a2.559 2.559 0 0 1 .531.556 4.878 4.878 0 0 1 .574.9 3.194 3.194 0 0 1 .306.889 6.375 6.375 0 0 1 .075 1.077v10.531a3.313 3.313 0 0 1-.524 1.844 3.54 3.54 0 0 1-.649.768h5.145a3.443 3.443 0 0 1-.668-.768 3.226 3.226 0 0 1-.525-1.826v-7.714l5.963 7.714a5.857 5.857 0 0 0 1.086 1.094 10.785 10.785 0 0 0 1.948 1.215 7.615 7.615 0 0 0 1.33.574 13.972 13.972 0 0 0 1.455.357V7.279a2.625 2.625 0 0 1 .15-.913 3.038 3.038 0 0 1 .237-.508c.187-.326.3-.52.343-.586a2.467 2.467 0 0 1 .45-.484h-4.275zM88.76 0l-4.708 2.684 1.174.653 4.477-1.7zm1.755 17.69a3.958 3.958 0 0 1-3.428 1.62 4 4 0 0 1-3.453-2.146 8.539 8.539 0 0 1-1.255-4.664 6.365 6.365 0 0 1 1.086-3.851 3.822 3.822 0 0 1 3.266-1.6 4.075 4.075 0 0 1 3.684 2.189 9.25 9.25 0 0 1 1.111 4.74 6.286 6.286 0 0 1-1.012 3.712m3.422-10.84a10.217 10.217 0 0 0-6.85-2.267 9.915 9.915 0 0 0-6.956 2.479 8.078 8.078 0 0 0-2.71 6.209 8.1 8.1 0 0 0 2.466 6 9.094 9.094 0 0 0 6.65 2.551 10.678 10.678 0 0 0 7.237-2.37 8.248 8.248 0 0 0 2.822-6.6 7.456 7.456 0 0 0-2.66-6M76.721 21.009a1.969 1.969 0 0 1-.356-.423 1.615 1.615 0 0 1-.281-.611 3.889 3.889 0 0 1-.05-.75V6.668a2.909 2.909 0 0 1 .112-.484 1.609 1.609 0 0 1 .262-.586 4.743 4.743 0 0 1 .356-.466 1.986 1.986 0 0 1 .437-.345h-7.242a1.926 1.926 0 0 1 .481.326 3.482 3.482 0 0 1 .375.435 1.665 1.665 0 0 1 .275.6 2.368 2.368 0 0 1 .081.526v12.581a3.017 3.017 0 0 1-.144.979 2.167 2.167 0 0 1-1.049 1.124H77.2a4.279 4.279 0 0 1-.475-.351M56.665 4.788l-.98 3.567a4.051 4.051 0 0 1 1.086-.647 3.111 3.111 0 0 1 1.211-.345h1.842l.212.079v11.783a2.548 2.548 0 0 1-.606 1.723 2.7 2.7 0 0 1-.481.447h7.237a2.919 2.919 0 0 1-.868-.822 2.836 2.836 0 0 1-.4-.707 4.587 4.587 0 0 1-.05-.9V7.521l.375-.163h1.3a1.755 1.755 0 0 1 1.274.466c.044.042.119.121.231.242a1.25 1.25 0 0 1 .25.387l.962-3.664H56.665zm-.818 8.627a5.912 5.912 0 0 0-2.323-1.783l-1.717-.768c-.88-.405-1.4-.653-1.567-.75-.812-.447-1.211-.925-1.211-1.439a1.469 1.469 0 0 1 .125-.544 1.565 1.565 0 0 1 .887-.871 3.927 3.927 0 0 1 1.459-.241 4.555 4.555 0 0 1 1.317.206 6.842 6.842 0 0 1 1.13.423l1.024.544V5.254l-1.63-.387a9.336 9.336 0 0 0-1.43-.242c-.456-.042-.943-.06-1.474-.06a7.585 7.585 0 0 0-4.4 1.245 3.825 3.825 0 0 0-1.816 3.29 4.621 4.621 0 0 0 .987 3.059 9.355 9.355 0 0 0 3.241 2.207l1.8.852a4.594 4.594 0 0 1 1.3.852 1.825 1.825 0 0 1 .543 1.294 1.487 1.487 0 0 1-.681 1.336 3.223 3.223 0 0 1-1.786.447 9.329 9.329 0 0 1-2.011-.236 6.984 6.984 0 0 1-1.78-.617l-1.863-1.034.774 3.464.649.224a13.763 13.763 0 0 0 2.26.586 13.064 13.064 0 0 0 2.154.181 8.212 8.212 0 0 0 5.1-1.5 4.758 4.758 0 0 0 1.979-3.99 4.544 4.544 0 0 0-1.037-2.811m-13.583 5.122a5.9 5.9 0 0 1-2.011.484 1.553 1.553 0 0 0-.312.042h-.337a9.181 9.181 0 0 1-1.5-.121 6.825 6.825 0 0 1-1.211-.3v-4.76h1.717a2.99 2.99 0 0 1 .562.073 1.555 1.555 0 0 1 .587.236 1.612 1.612 0 0 1 .649.81v-3.749l-.337.163H36.9v-4.05h2.573a2.036 2.036 0 0 1 .543.109 2.319 2.319 0 0 1 .631.3 2.747 2.747 0 0 1 .387.314 1.609 1.609 0 0 1 .244.405V4.643l-.287.145H30.909a1.865 1.865 0 0 1 .462.363 3.522 3.522 0 0 1 .375.447 1.657 1.657 0 0 1 .262.574 2.278 2.278 0 0 1 .094.5v12.535a2.863 2.863 0 0 1-.137.961 2.124 2.124 0 0 1-.493.762 1.318 1.318 0 0 1-.212.206c-.012.012-.156.091-.418.224h11.631l1.086-3.827a10.254 10.254 0 0 1-1.293 1" transform="translate(-11.845)"/></g></svg>